<svg width="90" height="90" viewBox="0 0 90 90" fill="none" xmlns="http://www.w3.org/2000/svg">
<path d="M14.7576 30.2319C21.9396 24.1509 27.6127 19.3429 43.0085 27.9211C50.4042 32.0399 56.3692 33.5967 61.3312 33.5886C70.026 33.5886 75.6622 28.8211 80.5337 24.6982C81.3699 23.9809 81.8899 22.9706 81.9835 21.8816C82.0771 20.7926 81.737 19.7104 81.0353 18.8645C80.6929 18.4494 80.2697 18.1062 79.7905 17.8553C79.3113 17.6043 78.786 17.4507 78.2456 17.4034C77.7051 17.3562 77.1606 17.4163 76.6441 17.5802C76.1277 17.7441 75.6498 18.0085 75.2387 18.3578C68.0609 24.4468 62.3836 29.2549 46.9879 20.6685C26.6467 9.34575 17.1173 17.4132 9.46265 23.8995C8.62709 24.6174 8.10786 25.628 8.015 26.717C7.92214 27.806 8.26296 28.8878 8.96522 29.7332C9.30776 30.1476 9.73111 30.49 10.2102 30.7402C10.6893 30.9904 11.2145 31.1432 11.7546 31.1897C12.2946 31.2362 12.8387 31.1754 13.3545 31.0109C13.8703 30.8464 14.3475 30.5815 14.7576 30.2319V30.2319ZM75.2387 39.0614C68.0609 45.1424 62.3836 49.9585 46.9879 41.3722C26.6467 30.0413 17.1173 38.1128 9.46265 44.5951C8.62709 45.313 8.10786 46.3236 8.015 47.4126C7.92214 48.5016 8.26296 49.5834 8.96522 50.4288C9.30717 50.8438 9.73007 51.1869 10.2089 51.4378C10.6877 51.6887 11.2127 51.8423 11.7528 51.8896C12.2929 51.9368 12.8371 51.8767 13.3533 51.7129C13.8694 51.549 14.3469 51.2847 14.7576 50.9356C21.9396 44.8505 27.6127 40.0425 43.0085 48.6167C50.4042 52.7436 56.3692 54.2923 61.3312 54.2923C70.026 54.2923 75.6622 49.5248 80.5337 45.3938C81.3705 44.6777 81.8911 43.668 81.9848 42.5794C82.0784 41.4907 81.7378 40.409 81.0353 39.5641C80.693 39.1489 80.2696 38.8056 79.7903 38.5547C79.311 38.3038 78.7854 38.1503 78.2449 38.1034C77.7043 38.0565 77.1596 38.1172 76.6433 38.2817C76.1269 38.4463 75.6493 38.7115 75.2387 39.0614V39.0614ZM75.2387 59.7611C68.0609 65.8502 62.3836 70.6582 46.9879 62.08C26.6467 50.7491 17.1173 58.8165 9.46265 65.3029C8.62709 66.0208 8.10786 67.0313 8.015 68.1203C7.92214 69.2093 8.26296 70.2912 8.96522 71.1366C9.30742 71.5514 9.73064 71.8943 10.2098 72.1448C10.6889 72.3953 11.2142 72.5483 11.7544 72.5948C12.2946 72.6413 12.8389 72.5803 13.3548 72.4155C13.8706 72.2507 14.3477 71.9853 14.7576 71.6352C21.9396 65.5542 27.6127 60.7503 43.0085 69.3244C50.4042 73.4433 56.3692 75 61.3312 75C70.026 75 75.6622 70.2244 80.5337 66.1015C81.3699 65.3842 81.8899 64.3739 81.9835 63.2849C82.0771 62.1959 81.737 61.1137 81.0353 60.2678C80.6926 59.8532 80.2692 59.5105 79.7901 59.2598C79.3109 59.0092 78.7857 58.8557 78.2454 58.8085C77.7051 58.7613 77.1607 58.8212 76.6444 58.9848C76.128 59.1484 75.65 59.4124 75.2387 59.7611V59.7611Z" fill="white"/>
</svg>
