<svg width="90" height="90" viewBox="0 0 90 90" fill="none" xmlns="http://www.w3.org/2000/svg">
<path d="M54.064 68.399C53.0423 71.6963 50.3786 74.4009 47.1311 75.4382C41.6213 77.2165 36.4033 74.5861 34.0315 70.1774C32.7544 67.7692 34.6518 64.8794 37.352 64.8794H37.3885C38.6292 64.8794 39.8698 65.4722 40.4536 66.5837C41.0739 67.7692 42.2781 68.5843 43.7011 68.5843C45.708 68.5843 47.35 66.9171 47.35 64.8794C47.35 62.8418 45.708 61.1746 43.7011 61.1746H12.6489C10.642 61.1746 9 59.5074 9 57.4698C9 55.4321 10.642 53.765 12.6489 53.765H43.6646C50.8165 53.765 56.4358 60.8041 54.064 68.399ZM70.7031 22.9037C70.1544 20.5841 68.9847 18.4637 67.3233 16.7768C65.6619 15.0899 63.5735 13.9023 61.2889 13.3452C54.8668 11.8633 48.9921 15.3088 46.6203 20.6808C45.4891 23.1631 47.2406 25.9787 49.9043 25.9787C51.3274 25.9787 52.641 25.1637 53.1883 23.867C53.6013 22.8463 54.3042 21.9735 55.2075 21.3599C56.1107 20.7463 57.1735 20.4196 58.2603 20.4215C61.2889 20.4215 63.7337 22.9037 63.7337 25.9787C63.7337 29.0537 61.2889 31.536 58.2603 31.536H12.6489C10.642 31.536 9 33.2031 9 35.2408C9 37.2785 10.642 38.9456 12.6489 38.9456H58.2603C66.2879 38.9456 72.6005 31.3878 70.7031 22.9037ZM68.8421 42.6505H12.6489C10.642 42.6505 9 44.3176 9 46.3553C9 48.393 10.642 50.0601 12.6489 50.0601H69.207C72.2356 50.0601 74.6804 52.5424 74.6804 55.6174C74.6822 56.7208 74.3604 57.7999 73.7561 58.717C73.1518 59.6341 72.2922 60.3478 71.2869 60.7671C69.9733 61.3228 69.207 62.6566 69.207 64.1014C69.207 66.806 71.9802 68.5843 74.425 67.4728C77.0972 66.2583 79.279 64.1509 80.6069 61.5017C81.9348 58.8524 82.3286 55.8211 81.7228 52.9128C80.4822 46.8369 74.9358 42.6505 68.8421 42.6505Z" fill="white"/>
</svg>
