<svg width="90" height="90" viewBox="0 0 90 90" fill="none" xmlns="http://www.w3.org/2000/svg">
<path d="M22.7526 9.80659C25.0704 7.19492 28.2286 7.6096 30.2471 9.80659L31.4774 11.2346C31.903 11.696 32.5209 11.9377 33.1498 11.8827L35.3386 11.2319C38.3237 10.592 41.0343 12.8192 41.0343 16.2767V17.5784C41.0974 18.2924 41.7208 18.773 42.3607 19.0861L44.338 19.91C47.1996 21.3106 47.9136 24.6253 45.8292 27.4072L45.2388 28.1899C44.706 28.9066 44.8158 29.8486 45.3431 30.5709L45.9363 31.3975C48.0921 34.0503 46.8755 37.6891 43.8327 38.9606L42.13 39.6746C41.4874 39.941 41.2375 40.3996 41.1167 41.0862L40.9986 43.3106C40.9261 43.9321 40.7306 44.5328 40.4236 45.078C40.1166 45.6231 39.7042 46.1017 39.2104 46.4859C38.7165 46.87 38.1512 47.1521 37.5473 47.3156C36.9434 47.4791 36.313 47.5208 35.6928 47.4382L33.1004 46.7462C32.477 46.6583 31.7026 46.8643 31.2879 47.5151L30.3542 48.7949C28.0309 51.412 24.9001 50.9754 23.3183 49.4457L21.5937 47.3558C21.1406 46.9164 20.5721 46.543 19.891 46.8011L17.2821 47.5151C15.1236 47.82 12.586 46.164 12.1823 44.0274L11.8803 40.9324C11.8202 40.6144 11.6852 40.3152 11.4866 40.0597C11.2879 39.8042 11.0312 39.5997 10.7378 39.4632L8.90608 38.8343C6.15436 37.5518 5.23162 34.4458 6.81345 31.8506L7.84604 30.4226C8.04821 30.0897 8.15075 29.7058 8.1415 29.3164C8.13225 28.9271 8.01161 28.5485 7.79386 28.2256L7.02491 27.1353C4.8444 24.0321 6.35209 20.5663 9.57891 19.5255L10.2929 19.2948C11.0784 19.0422 11.8391 18.3886 11.9022 17.5647L12.0615 15.5682C12.3197 12.3276 15.2801 10.4657 18.3916 11.4104L19.3994 11.718C20.3716 12.0969 21.1296 11.7729 21.6623 11.1962L22.7498 9.80659H22.7526Z" fill="url(#paint0_linear_17_56)"/>
<path d="M22.7526 9.80659C25.0704 7.19492 28.2286 7.6096 30.2471 9.80659L31.4774 11.2346C31.903 11.696 32.5209 11.9377 33.1498 11.8827L35.3386 11.2319C38.3237 10.592 41.0343 12.8192 41.0343 16.2767V17.5784C41.0974 18.2924 41.7208 18.773 42.3607 19.0861L44.338 19.91C47.1996 21.3106 47.9136 24.6253 45.8292 27.4072L45.2388 28.1899C44.706 28.9066 44.8158 29.8486 45.3431 30.5709L45.9363 31.3975C48.0921 34.0503 46.8755 37.6891 43.8327 38.9606L42.13 39.6746C41.4874 39.941 41.2375 40.3996 41.1167 41.0862L40.9986 43.3106C40.9261 43.9321 40.7306 44.5328 40.4236 45.078C40.1166 45.6231 39.7042 46.1017 39.2104 46.4859C38.7165 46.87 38.1512 47.1521 37.5473 47.3156C36.9434 47.4791 36.313 47.5208 35.6928 47.4382L33.1004 46.7462C32.477 46.6583 31.7026 46.8643 31.2879 47.5151L30.3542 48.7949C28.0309 51.412 24.9001 50.9754 23.3183 49.4457L21.5937 47.3558C21.1406 46.9164 20.5721 46.543 19.891 46.8011L17.2821 47.5151C15.1236 47.82 12.586 46.164 12.1823 44.0274L11.8803 40.9324C11.8202 40.6144 11.6852 40.3152 11.4866 40.0597C11.2879 39.8042 11.0312 39.5997 10.7378 39.4632L8.90608 38.8343C6.15436 37.5518 5.23162 34.4458 6.81345 31.8506L7.84604 30.4226C8.04821 30.0897 8.15075 29.7058 8.1415 29.3164C8.13225 28.9271 8.01161 28.5485 7.79386 28.2256L7.02491 27.1353C4.8444 24.0321 6.35209 20.5663 9.57891 19.5255L10.2929 19.2948C11.0784 19.0422 11.8391 18.3886 11.9022 17.5647L12.0615 15.5682C12.3197 12.3276 15.2801 10.4657 18.3916 11.4104L19.3994 11.718C20.3716 12.0969 21.1296 11.7729 21.6623 11.1962L22.7498 9.80659H22.7526Z" fill="url(#paint1_radial_17_56)"/>
<path d="M22.7526 9.80659C25.0704 7.19492 28.2286 7.6096 30.2471 9.80659L31.4774 11.2346C31.903 11.696 32.5209 11.9377 33.1498 11.8827L35.3386 11.2319C38.3237 10.592 41.0343 12.8192 41.0343 16.2767V17.5784C41.0974 18.2924 41.7208 18.773 42.3607 19.0861L44.338 19.91C47.1996 21.3106 47.9136 24.6253 45.8292 27.4072L45.2388 28.1899C44.706 28.9066 44.8158 29.8486 45.3431 30.5709L45.9363 31.3975C48.0921 34.0503 46.8755 37.6891 43.8327 38.9606L42.13 39.6746C41.4874 39.941 41.2375 40.3996 41.1167 41.0862L40.9986 43.3106C40.9261 43.9321 40.7306 44.5328 40.4236 45.078C40.1166 45.6231 39.7042 46.1017 39.2104 46.4859C38.7165 46.87 38.1512 47.1521 37.5473 47.3156C36.9434 47.4791 36.313 47.5208 35.6928 47.4382L33.1004 46.7462C32.477 46.6583 31.7026 46.8643 31.2879 47.5151L30.3542 48.7949C28.0309 51.412 24.9001 50.9754 23.3183 49.4457L21.5937 47.3558C21.1406 46.9164 20.5721 46.543 19.891 46.8011L17.2821 47.5151C15.1236 47.82 12.586 46.164 12.1823 44.0274L11.8803 40.9324C11.8202 40.6144 11.6852 40.3152 11.4866 40.0597C11.2879 39.8042 11.0312 39.5997 10.7378 39.4632L8.90608 38.8343C6.15436 37.5518 5.23162 34.4458 6.81345 31.8506L7.84604 30.4226C8.04821 30.0897 8.15075 29.7058 8.1415 29.3164C8.13225 28.9271 8.01161 28.5485 7.79386 28.2256L7.02491 27.1353C4.8444 24.0321 6.35209 20.5663 9.57891 19.5255L10.2929 19.2948C11.0784 19.0422 11.8391 18.3886 11.9022 17.5647L12.0615 15.5682C12.3197 12.3276 15.2801 10.4657 18.3916 11.4104L19.3994 11.718C20.3716 12.0969 21.1296 11.7729 21.6623 11.1962L22.7498 9.80659H22.7526Z" fill="url(#paint2_radial_17_56)"/>
<path d="M22.7526 9.80659C25.0704 7.19492 28.2286 7.6096 30.2471 9.80659L31.4774 11.2346C31.903 11.696 32.5209 11.9377 33.1498 11.8827L35.3386 11.2319C38.3237 10.592 41.0343 12.8192 41.0343 16.2767V17.5784C41.0974 18.2924 41.7208 18.773 42.3607 19.0861L44.338 19.91C47.1996 21.3106 47.9136 24.6253 45.8292 27.4072L45.2388 28.1899C44.706 28.9066 44.8158 29.8486 45.3431 30.5709L45.9363 31.3975C48.0921 34.0503 46.8755 37.6891 43.8327 38.9606L42.13 39.6746C41.4874 39.941 41.2375 40.3996 41.1167 41.0862L40.9986 43.3106C40.9261 43.9321 40.7306 44.5328 40.4236 45.078C40.1166 45.6231 39.7042 46.1017 39.2104 46.4859C38.7165 46.87 38.1512 47.1521 37.5473 47.3156C36.9434 47.4791 36.313 47.5208 35.6928 47.4382L33.1004 46.7462C32.477 46.6583 31.7026 46.8643 31.2879 47.5151L30.3542 48.7949C28.0309 51.412 24.9001 50.9754 23.3183 49.4457L21.5937 47.3558C21.1406 46.9164 20.5721 46.543 19.891 46.8011L17.2821 47.5151C15.1236 47.82 12.586 46.164 12.1823 44.0274L11.8803 40.9324C11.8202 40.6144 11.6852 40.3152 11.4866 40.0597C11.2879 39.8042 11.0312 39.5997 10.7378 39.4632L8.90608 38.8343C6.15436 37.5518 5.23162 34.4458 6.81345 31.8506L7.84604 30.4226C8.04821 30.0897 8.15075 29.7058 8.1415 29.3164C8.13225 28.9271 8.01161 28.5485 7.79386 28.2256L7.02491 27.1353C4.8444 24.0321 6.35209 20.5663 9.57891 19.5255L10.2929 19.2948C11.0784 19.0422 11.8391 18.3886 11.9022 17.5647L12.0615 15.5682C12.3197 12.3276 15.2801 10.4657 18.3916 11.4104L19.3994 11.718C20.3716 12.0969 21.1296 11.7729 21.6623 11.1962L22.7498 9.80659H22.7526Z" fill="url(#paint3_radial_17_56)"/>
<path d="M22.7526 9.80659C25.0704 7.19492 28.2286 7.6096 30.2471 9.80659L31.4774 11.2346C31.903 11.696 32.5209 11.9377 33.1498 11.8827L35.3386 11.2319C38.3237 10.592 41.0343 12.8192 41.0343 16.2767V17.5784C41.0974 18.2924 41.7208 18.773 42.3607 19.0861L44.338 19.91C47.1996 21.3106 47.9136 24.6253 45.8292 27.4072L45.2388 28.1899C44.706 28.9066 44.8158 29.8486 45.3431 30.5709L45.9363 31.3975C48.0921 34.0503 46.8755 37.6891 43.8327 38.9606L42.13 39.6746C41.4874 39.941 41.2375 40.3996 41.1167 41.0862L40.9986 43.3106C40.9261 43.9321 40.7306 44.5328 40.4236 45.078C40.1166 45.6231 39.7042 46.1017 39.2104 46.4859C38.7165 46.87 38.1512 47.1521 37.5473 47.3156C36.9434 47.4791 36.313 47.5208 35.6928 47.4382L33.1004 46.7462C32.477 46.6583 31.7026 46.8643 31.2879 47.5151L30.3542 48.7949C28.0309 51.412 24.9001 50.9754 23.3183 49.4457L21.5937 47.3558C21.1406 46.9164 20.5721 46.543 19.891 46.8011L17.2821 47.5151C15.1236 47.82 12.586 46.164 12.1823 44.0274L11.8803 40.9324C11.8202 40.6144 11.6852 40.3152 11.4866 40.0597C11.2879 39.8042 11.0312 39.5997 10.7378 39.4632L8.90608 38.8343C6.15436 37.5518 5.23162 34.4458 6.81345 31.8506L7.84604 30.4226C8.04821 30.0897 8.15075 29.7058 8.1415 29.3164C8.13225 28.9271 8.01161 28.5485 7.79386 28.2256L7.02491 27.1353C4.8444 24.0321 6.35209 20.5663 9.57891 19.5255L10.2929 19.2948C11.0784 19.0422 11.8391 18.3886 11.9022 17.5647L12.0615 15.5682C12.3197 12.3276 15.2801 10.4657 18.3916 11.4104L19.3994 11.718C20.3716 12.0969 21.1296 11.7729 21.6623 11.1962L22.7498 9.80659H22.7526Z" fill="url(#paint4_radial_17_56)"/>
<path d="M22.7526 9.80659C25.0704 7.19492 28.2286 7.6096 30.2471 9.80659L31.4774 11.2346C31.903 11.696 32.5209 11.9377 33.1498 11.8827L35.3386 11.2319C38.3237 10.592 41.0343 12.8192 41.0343 16.2767V17.5784C41.0974 18.2924 41.7208 18.773 42.3607 19.0861L44.338 19.91C47.1996 21.3106 47.9136 24.6253 45.8292 27.4072L45.2388 28.1899C44.706 28.9066 44.8158 29.8486 45.3431 30.5709L45.9363 31.3975C48.0921 34.0503 46.8755 37.6891 43.8327 38.9606L42.13 39.6746C41.4874 39.941 41.2375 40.3996 41.1167 41.0862L40.9986 43.3106C40.9261 43.9321 40.7306 44.5328 40.4236 45.078C40.1166 45.6231 39.7042 46.1017 39.2104 46.4859C38.7165 46.87 38.1512 47.1521 37.5473 47.3156C36.9434 47.4791 36.313 47.5208 35.6928 47.4382L33.1004 46.7462C32.477 46.6583 31.7026 46.8643 31.2879 47.5151L30.3542 48.7949C28.0309 51.412 24.9001 50.9754 23.3183 49.4457L21.5937 47.3558C21.1406 46.9164 20.5721 46.543 19.891 46.8011L17.2821 47.5151C15.1236 47.82 12.586 46.164 12.1823 44.0274L11.8803 40.9324C11.8202 40.6144 11.6852 40.3152 11.4866 40.0597C11.2879 39.8042 11.0312 39.5997 10.7378 39.4632L8.90608 38.8343C6.15436 37.5518 5.23162 34.4458 6.81345 31.8506L7.84604 30.4226C8.04821 30.0897 8.15075 29.7058 8.1415 29.3164C8.13225 28.9271 8.01161 28.5485 7.79386 28.2256L7.02491 27.1353C4.8444 24.0321 6.35209 20.5663 9.57891 19.5255L10.2929 19.2948C11.0784 19.0422 11.8391 18.3886 11.9022 17.5647L12.0615 15.5682C12.3197 12.3276 15.2801 10.4657 18.3916 11.4104L19.3994 11.718C20.3716 12.0969 21.1296 11.7729 21.6623 11.1962L22.7498 9.80659H22.7526Z" fill="url(#paint5_radial_17_56)"/>
<path d="M22.7526 9.80659C25.0704 7.19492 28.2286 7.6096 30.2471 9.80659L31.4774 11.2346C31.903 11.696 32.5209 11.9377 33.1498 11.8827L35.3386 11.2319C38.3237 10.592 41.0343 12.8192 41.0343 16.2767V17.5784C41.0974 18.2924 41.7208 18.773 42.3607 19.0861L44.338 19.91C47.1996 21.3106 47.9136 24.6253 45.8292 27.4072L45.2388 28.1899C44.706 28.9066 44.8158 29.8486 45.3431 30.5709L45.9363 31.3975C48.0921 34.0503 46.8755 37.6891 43.8327 38.9606L42.13 39.6746C41.4874 39.941 41.2375 40.3996 41.1167 41.0862L40.9986 43.3106C40.9261 43.9321 40.7306 44.5328 40.4236 45.078C40.1166 45.6231 39.7042 46.1017 39.2104 46.4859C38.7165 46.87 38.1512 47.1521 37.5473 47.3156C36.9434 47.4791 36.313 47.5208 35.6928 47.4382L33.1004 46.7462C32.477 46.6583 31.7026 46.8643 31.2879 47.5151L30.3542 48.7949C28.0309 51.412 24.9001 50.9754 23.3183 49.4457L21.5937 47.3558C21.1406 46.9164 20.5721 46.543 19.891 46.8011L17.2821 47.5151C15.1236 47.82 12.586 46.164 12.1823 44.0274L11.8803 40.9324C11.8202 40.6144 11.6852 40.3152 11.4866 40.0597C11.2879 39.8042 11.0312 39.5997 10.7378 39.4632L8.90608 38.8343C6.15436 37.5518 5.23162 34.4458 6.81345 31.8506L7.84604 30.4226C8.04821 30.0897 8.15075 29.7058 8.1415 29.3164C8.13225 28.9271 8.01161 28.5485 7.79386 28.2256L7.02491 27.1353C4.8444 24.0321 6.35209 20.5663 9.57891 19.5255L10.2929 19.2948C11.0784 19.0422 11.8391 18.3886 11.9022 17.5647L12.0615 15.5682C12.3197 12.3276 15.2801 10.4657 18.3916 11.4104L19.3994 11.718C20.3716 12.0969 21.1296 11.7729 21.6623 11.1962L22.7498 9.80659H22.7526Z" fill="url(#paint6_radial_17_56)"/>
<path d="M22.7526 9.80659C25.0704 7.19492 28.2286 7.6096 30.2471 9.80659L31.4774 11.2346C31.903 11.696 32.5209 11.9377 33.1498 11.8827L35.3386 11.2319C38.3237 10.592 41.0343 12.8192 41.0343 16.2767V17.5784C41.0974 18.2924 41.7208 18.773 42.3607 19.0861L44.338 19.91C47.1996 21.3106 47.9136 24.6253 45.8292 27.4072L45.2388 28.1899C44.706 28.9066 44.8158 29.8486 45.3431 30.5709L45.9363 31.3975C48.0921 34.0503 46.8755 37.6891 43.8327 38.9606L42.13 39.6746C41.4874 39.941 41.2375 40.3996 41.1167 41.0862L40.9986 43.3106C40.9261 43.9321 40.7306 44.5328 40.4236 45.078C40.1166 45.6231 39.7042 46.1017 39.2104 46.4859C38.7165 46.87 38.1512 47.1521 37.5473 47.3156C36.9434 47.4791 36.313 47.5208 35.6928 47.4382L33.1004 46.7462C32.477 46.6583 31.7026 46.8643 31.2879 47.5151L30.3542 48.7949C28.0309 51.412 24.9001 50.9754 23.3183 49.4457L21.5937 47.3558C21.1406 46.9164 20.5721 46.543 19.891 46.8011L17.2821 47.5151C15.1236 47.82 12.586 46.164 12.1823 44.0274L11.8803 40.9324C11.8202 40.6144 11.6852 40.3152 11.4866 40.0597C11.2879 39.8042 11.0312 39.5997 10.7378 39.4632L8.90608 38.8343C6.15436 37.5518 5.23162 34.4458 6.81345 31.8506L7.84604 30.4226C8.04821 30.0897 8.15075 29.7058 8.1415 29.3164C8.13225 28.9271 8.01161 28.5485 7.79386 28.2256L7.02491 27.1353C4.8444 24.0321 6.35209 20.5663 9.57891 19.5255L10.2929 19.2948C11.0784 19.0422 11.8391 18.3886 11.9022 17.5647L12.0615 15.5682C12.3197 12.3276 15.2801 10.4657 18.3916 11.4104L19.3994 11.718C20.3716 12.0969 21.1296 11.7729 21.6623 11.1962L22.7498 9.80659H22.7526Z" fill="url(#paint7_radial_17_56)"/>
<path d="M22.7526 9.80659C25.0704 7.19492 28.2286 7.6096 30.2471 9.80659L31.4774 11.2346C31.903 11.696 32.5209 11.9377 33.1498 11.8827L35.3386 11.2319C38.3237 10.592 41.0343 12.8192 41.0343 16.2767V17.5784C41.0974 18.2924 41.7208 18.773 42.3607 19.0861L44.338 19.91C47.1996 21.3106 47.9136 24.6253 45.8292 27.4072L45.2388 28.1899C44.706 28.9066 44.8158 29.8486 45.3431 30.5709L45.9363 31.3975C48.0921 34.0503 46.8755 37.6891 43.8327 38.9606L42.13 39.6746C41.4874 39.941 41.2375 40.3996 41.1167 41.0862L40.9986 43.3106C40.9261 43.9321 40.7306 44.5328 40.4236 45.078C40.1166 45.6231 39.7042 46.1017 39.2104 46.4859C38.7165 46.87 38.1512 47.1521 37.5473 47.3156C36.9434 47.4791 36.313 47.5208 35.6928 47.4382L33.1004 46.7462C32.477 46.6583 31.7026 46.8643 31.2879 47.5151L30.3542 48.7949C28.0309 51.412 24.9001 50.9754 23.3183 49.4457L21.5937 47.3558C21.1406 46.9164 20.5721 46.543 19.891 46.8011L17.2821 47.5151C15.1236 47.82 12.586 46.164 12.1823 44.0274L11.8803 40.9324C11.8202 40.6144 11.6852 40.3152 11.4866 40.0597C11.2879 39.8042 11.0312 39.5997 10.7378 39.4632L8.90608 38.8343C6.15436 37.5518 5.23162 34.4458 6.81345 31.8506L7.84604 30.4226C8.04821 30.0897 8.15075 29.7058 8.1415 29.3164C8.13225 28.9271 8.01161 28.5485 7.79386 28.2256L7.02491 27.1353C4.8444 24.0321 6.35209 20.5663 9.57891 19.5255L10.2929 19.2948C11.0784 19.0422 11.8391 18.3886 11.9022 17.5647L12.0615 15.5682C12.3197 12.3276 15.2801 10.4657 18.3916 11.4104L19.3994 11.718C20.3716 12.0969 21.1296 11.7729 21.6623 11.1962L22.7498 9.80659H22.7526Z" fill="url(#paint8_radial_17_56)"/>
<path d="M22.7526 9.80659C25.0704 7.19492 28.2286 7.6096 30.2471 9.80659L31.4774 11.2346C31.903 11.696 32.5209 11.9377 33.1498 11.8827L35.3386 11.2319C38.3237 10.592 41.0343 12.8192 41.0343 16.2767V17.5784C41.0974 18.2924 41.7208 18.773 42.3607 19.0861L44.338 19.91C47.1996 21.3106 47.9136 24.6253 45.8292 27.4072L45.2388 28.1899C44.706 28.9066 44.8158 29.8486 45.3431 30.5709L45.9363 31.3975C48.0921 34.0503 46.8755 37.6891 43.8327 38.9606L42.13 39.6746C41.4874 39.941 41.2375 40.3996 41.1167 41.0862L40.9986 43.3106C40.9261 43.9321 40.7306 44.5328 40.4236 45.078C40.1166 45.6231 39.7042 46.1017 39.2104 46.4859C38.7165 46.87 38.1512 47.1521 37.5473 47.3156C36.9434 47.4791 36.313 47.5208 35.6928 47.4382L33.1004 46.7462C32.477 46.6583 31.7026 46.8643 31.2879 47.5151L30.3542 48.7949C28.0309 51.412 24.9001 50.9754 23.3183 49.4457L21.5937 47.3558C21.1406 46.9164 20.5721 46.543 19.891 46.8011L17.2821 47.5151C15.1236 47.82 12.586 46.164 12.1823 44.0274L11.8803 40.9324C11.8202 40.6144 11.6852 40.3152 11.4866 40.0597C11.2879 39.8042 11.0312 39.5997 10.7378 39.4632L8.90608 38.8343C6.15436 37.5518 5.23162 34.4458 6.81345 31.8506L7.84604 30.4226C8.04821 30.0897 8.15075 29.7058 8.1415 29.3164C8.13225 28.9271 8.01161 28.5485 7.79386 28.2256L7.02491 27.1353C4.8444 24.0321 6.35209 20.5663 9.57891 19.5255L10.2929 19.2948C11.0784 19.0422 11.8391 18.3886 11.9022 17.5647L12.0615 15.5682C12.3197 12.3276 15.2801 10.4657 18.3916 11.4104L19.3994 11.718C20.3716 12.0969 21.1296 11.7729 21.6623 11.1962L22.7498 9.80659H22.7526Z" fill="url(#paint9_radial_17_56)"/>
<g filter="url(#filter0_i_17_56)">
<path d="M26.5148 45.5819C28.6782 45.6216 30.8278 45.2298 32.8381 44.4294C34.8484 43.629 36.679 42.4359 38.223 40.92C39.767 39.4041 40.9934 37.5958 41.8306 35.6005C42.6678 33.6053 43.099 31.4632 43.099 29.2994C43.099 27.1357 42.6678 24.9936 41.8306 22.9984C40.9934 21.0031 39.767 19.1947 38.223 17.6788C36.679 16.1629 34.8484 14.9699 32.8381 14.1695C30.8278 13.3691 28.6782 12.9773 26.5148 13.017C22.2482 13.0954 18.1828 14.8453 15.1932 17.8903C12.2036 20.9353 10.5287 25.0321 10.5287 29.2994C10.5287 33.5667 12.2036 37.6636 15.1932 40.7086C18.1828 43.7536 22.2482 45.5035 26.5148 45.5819V45.5819Z" fill="url(#paint10_radial_17_56)"/>
<path d="M26.5148 45.5819C28.6782 45.6216 30.8278 45.2298 32.8381 44.4294C34.8484 43.629 36.679 42.4359 38.223 40.92C39.767 39.4041 40.9934 37.5958 41.8306 35.6005C42.6678 33.6053 43.099 31.4632 43.099 29.2994C43.099 27.1357 42.6678 24.9936 41.8306 22.9984C40.9934 21.0031 39.767 19.1947 38.223 17.6788C36.679 16.1629 34.8484 14.9699 32.8381 14.1695C30.8278 13.3691 28.6782 12.9773 26.5148 13.017C22.2482 13.0954 18.1828 14.8453 15.1932 17.8903C12.2036 20.9353 10.5287 25.0321 10.5287 29.2994C10.5287 33.5667 12.2036 37.6636 15.1932 40.7086C18.1828 43.7536 22.2482 45.5035 26.5148 45.5819V45.5819Z" fill="url(#paint11_radial_17_56)"/>
</g>
<path d="M34.2153 42.2864C35.6949 42.3193 37.1661 42.0563 38.5427 41.5128C39.9192 40.9693 41.1733 40.1563 42.2314 39.1216C43.2894 38.0868 44.1301 36.8511 44.704 35.4869C45.2779 34.1228 45.5736 32.6578 45.5736 31.1778C45.5736 29.6979 45.2779 28.2329 44.704 26.8688C44.1301 25.5046 43.2894 24.2689 42.2314 23.2341C41.1733 22.1994 39.9192 21.3864 38.5427 20.8429C37.1661 20.2994 35.6949 20.0364 34.2153 20.0693C31.3119 20.1339 28.5492 21.3326 26.5186 23.4088C24.4881 25.485 23.3511 28.2737 23.3511 31.1778C23.3511 34.082 24.4881 36.8707 26.5186 38.9469C28.5492 41.0231 31.3119 42.2218 34.2153 42.2864V42.2864Z" fill="url(#paint12_radial_17_56)"/>
<path d="M34.2153 42.2864C35.6949 42.3193 37.1661 42.0563 38.5427 41.5128C39.9192 40.9693 41.1733 40.1563 42.2314 39.1216C43.2894 38.0868 44.1301 36.8511 44.704 35.4869C45.2779 34.1228 45.5736 32.6578 45.5736 31.1778C45.5736 29.6979 45.2779 28.2329 44.704 26.8688C44.1301 25.5046 43.2894 24.2689 42.2314 23.2341C41.1733 22.1994 39.9192 21.3864 38.5427 20.8429C37.1661 20.2994 35.6949 20.0364 34.2153 20.0693C31.3119 20.1339 28.5492 21.3326 26.5186 23.4088C24.4881 25.485 23.3511 28.2737 23.3511 31.1778C23.3511 34.082 24.4881 36.8707 26.5186 38.9469C28.5492 41.0231 31.3119 42.2218 34.2153 42.2864V42.2864Z" fill="url(#paint13_radial_17_56)"/>
<g filter="url(#filter1_i_17_56)">
<path d="M24.4361 71.3168L18.0923 79.9949C16.527 82.137 13.5336 82.6038 11.3915 81.0385C9.24944 79.4731 8.78258 76.4797 10.3479 74.3377L16.6917 65.6596C18.2571 63.5175 21.2505 63.0506 23.3925 64.616C25.5346 66.1539 26.0015 69.1747 24.4361 71.3168Z" fill="#535DFF"/>
<path d="M24.4361 71.3168L18.0923 79.9949C16.527 82.137 13.5336 82.6038 11.3915 81.0385C9.24944 79.4731 8.78258 76.4797 10.3479 74.3377L16.6917 65.6596C18.2571 63.5175 21.2505 63.0506 23.3925 64.616C25.5346 66.1539 26.0015 69.1747 24.4361 71.3168Z" fill="url(#paint14_radial_17_56)"/>
</g>
<g filter="url(#filter2_i_17_56)">
<path d="M42.4707 71.3168L36.1269 79.9949C34.5615 82.137 31.5681 82.6038 29.426 81.0385C27.284 79.4731 26.8171 76.4797 28.3825 74.3377L34.7263 65.6596C36.2916 63.5175 39.285 63.0506 41.4271 64.616C43.5692 66.1539 44.036 69.1747 42.4707 71.3168Z" fill="#535DFF"/>
<path d="M42.4707 71.3168L36.1269 79.9949C34.5615 82.137 31.5681 82.6038 29.426 81.0385C27.284 79.4731 26.8171 76.4797 28.3825 74.3377L34.7263 65.6596C36.2916 63.5175 39.285 63.0506 41.4271 64.616C43.5692 66.1539 44.036 69.1747 42.4707 71.3168Z" fill="url(#paint15_radial_17_56)"/>
</g>
<g filter="url(#filter3_i_17_56)">
<path d="M60.5022 71.3168L54.1584 79.9949C52.593 82.137 49.5996 82.6038 47.4575 81.0385C45.3155 79.4731 44.8486 76.4797 46.414 74.3377L52.7578 65.6596C54.3231 63.5175 57.3165 63.0506 59.4586 64.616C61.6006 66.1539 62.0675 69.1747 60.5022 71.3168Z" fill="#535DFF"/>
<path d="M60.5022 71.3168L54.1584 79.9949C52.593 82.137 49.5996 82.6038 47.4575 81.0385C45.3155 79.4731 44.8486 76.4797 46.414 74.3377L52.7578 65.6596C54.3231 63.5175 57.3165 63.0506 59.4586 64.616C61.6006 66.1539 62.0675 69.1747 60.5022 71.3168Z" fill="url(#paint16_radial_17_56)"/>
</g>
<g filter="url(#filter4_i_17_56)">
<path d="M75.549 20.0555C65.7669 10.5205 50.1161 10.6853 40.5812 20.4674C38.1216 22.979 36.2274 25.9875 35.0256 29.291C34.9866 29.3946 34.9248 29.4881 34.8447 29.5645C34.7646 29.6409 34.6684 29.6982 34.5631 29.7323C34.4578 29.7663 34.3461 29.7762 34.2365 29.7611C34.1269 29.7461 34.022 29.7065 33.9298 29.6453C33.0705 29.0747 32.1604 28.5847 31.211 28.1816C28.4999 26.9381 25.5197 26.3962 22.5444 26.6056C19.5691 26.815 16.6941 27.769 14.1839 29.3798C11.6736 30.9907 9.60861 33.2068 8.17867 35.8244C6.74873 38.4419 5.99976 41.3769 6.00061 44.3596C6.00061 48.5476 7.46161 52.4061 9.88653 55.4626C11.5546 57.659 13.7089 59.439 16.1804 60.663C18.6518 61.8871 21.3733 62.5219 24.1312 62.5177H59.0963C62.7798 62.5209 66.4106 61.642 69.6848 59.9545C72.959 58.267 75.7815 55.8199 77.9162 52.818C85.4134 43.0085 84.6143 28.9011 75.5462 20.0555H75.549Z" fill="#D5D4DA"/>
<path d="M75.549 20.0555C65.7669 10.5205 50.1161 10.6853 40.5812 20.4674C38.1216 22.979 36.2274 25.9875 35.0256 29.291C34.9866 29.3946 34.9248 29.4881 34.8447 29.5645C34.7646 29.6409 34.6684 29.6982 34.5631 29.7323C34.4578 29.7663 34.3461 29.7762 34.2365 29.7611C34.1269 29.7461 34.022 29.7065 33.9298 29.6453C33.0705 29.0747 32.1604 28.5847 31.211 28.1816C28.4999 26.9381 25.5197 26.3962 22.5444 26.6056C19.5691 26.815 16.6941 27.769 14.1839 29.3798C11.6736 30.9907 9.60861 33.2068 8.17867 35.8244C6.74873 38.4419 5.99976 41.3769 6.00061 44.3596C6.00061 48.5476 7.46161 52.4061 9.88653 55.4626C11.5546 57.659 13.7089 59.439 16.1804 60.663C18.6518 61.8871 21.3733 62.5219 24.1312 62.5177H59.0963C62.7798 62.5209 66.4106 61.642 69.6848 59.9545C72.959 58.267 75.7815 55.8199 77.9162 52.818C85.4134 43.0085 84.6143 28.9011 75.5462 20.0555H75.549Z" fill="url(#paint17_linear_17_56)"/>
</g>
<path d="M75.549 20.0555C65.7669 10.5205 50.1161 10.6853 40.5812 20.4674C38.1216 22.979 36.2274 25.9875 35.0256 29.291C34.9866 29.3946 34.9248 29.4881 34.8447 29.5645C34.7646 29.6409 34.6684 29.6982 34.5631 29.7323C34.4578 29.7663 34.3461 29.7762 34.2365 29.7611C34.1269 29.7461 34.022 29.7065 33.9298 29.6453C33.0705 29.0747 32.1604 28.5847 31.211 28.1816C28.4999 26.9381 25.5197 26.3962 22.5444 26.6056C19.5691 26.815 16.6941 27.769 14.1839 29.3798C11.6736 30.9907 9.60861 33.2068 8.17867 35.8244C6.74873 38.4419 5.99976 41.3769 6.00061 44.3596C6.00061 48.5476 7.46161 52.4061 9.88653 55.4626C11.5546 57.659 13.7089 59.439 16.1804 60.663C18.6518 61.8871 21.3733 62.5219 24.1312 62.5177H59.0963C62.7798 62.5209 66.4106 61.642 69.6848 59.9545C72.959 58.267 75.7815 55.8199 77.9162 52.818C85.4134 43.0085 84.6143 28.9011 75.5462 20.0555H75.549Z" fill="url(#paint18_radial_17_56)"/>
<path d="M75.549 20.0555C65.7669 10.5205 50.1161 10.6853 40.5812 20.4674C38.1216 22.979 36.2274 25.9875 35.0256 29.291C34.9866 29.3946 34.9248 29.4881 34.8447 29.5645C34.7646 29.6409 34.6684 29.6982 34.5631 29.7323C34.4578 29.7663 34.3461 29.7762 34.2365 29.7611C34.1269 29.7461 34.022 29.7065 33.9298 29.6453C33.0705 29.0747 32.1604 28.5847 31.211 28.1816C28.4999 26.9381 25.5197 26.3962 22.5444 26.6056C19.5691 26.815 16.6941 27.769 14.1839 29.3798C11.6736 30.9907 9.60861 33.2068 8.17867 35.8244C6.74873 38.4419 5.99976 41.3769 6.00061 44.3596C6.00061 48.5476 7.46161 52.4061 9.88653 55.4626C11.5546 57.659 13.7089 59.439 16.1804 60.663C18.6518 61.8871 21.3733 62.5219 24.1312 62.5177H59.0963C62.7798 62.5209 66.4106 61.642 69.6848 59.9545C72.959 58.267 75.7815 55.8199 77.9162 52.818C85.4134 43.0085 84.6143 28.9011 75.5462 20.0555H75.549Z" fill="url(#paint19_radial_17_56)"/>
<path d="M75.549 20.0555C65.7669 10.5205 50.1161 10.6853 40.5812 20.4674C38.1216 22.979 36.2274 25.9875 35.0256 29.291C34.9866 29.3946 34.9248 29.4881 34.8447 29.5645C34.7646 29.6409 34.6684 29.6982 34.5631 29.7323C34.4578 29.7663 34.3461 29.7762 34.2365 29.7611C34.1269 29.7461 34.022 29.7065 33.9298 29.6453C33.0705 29.0747 32.1604 28.5847 31.211 28.1816C28.4999 26.9381 25.5197 26.3962 22.5444 26.6056C19.5691 26.815 16.6941 27.769 14.1839 29.3798C11.6736 30.9907 9.60861 33.2068 8.17867 35.8244C6.74873 38.4419 5.99976 41.3769 6.00061 44.3596C6.00061 48.5476 7.46161 52.4061 9.88653 55.4626C11.5546 57.659 13.7089 59.439 16.1804 60.663C18.6518 61.8871 21.3733 62.5219 24.1312 62.5177H59.0963C62.7798 62.5209 66.4106 61.642 69.6848 59.9545C72.959 58.267 75.7815 55.8199 77.9162 52.818C85.4134 43.0085 84.6143 28.9011 75.5462 20.0555H75.549Z" fill="url(#paint20_radial_17_56)"/>
<path d="M75.549 20.0555C65.7669 10.5205 50.1161 10.6853 40.5812 20.4674C38.1216 22.979 36.2274 25.9875 35.0256 29.291C34.9866 29.3946 34.9248 29.4881 34.8447 29.5645C34.7646 29.6409 34.6684 29.6982 34.5631 29.7323C34.4578 29.7663 34.3461 29.7762 34.2365 29.7611C34.1269 29.7461 34.022 29.7065 33.9298 29.6453C33.0705 29.0747 32.1604 28.5847 31.211 28.1816C28.4999 26.9381 25.5197 26.3962 22.5444 26.6056C19.5691 26.815 16.6941 27.769 14.1839 29.3798C11.6736 30.9907 9.60861 33.2068 8.17867 35.8244C6.74873 38.4419 5.99976 41.3769 6.00061 44.3596C6.00061 48.5476 7.46161 52.4061 9.88653 55.4626C11.5546 57.659 13.7089 59.439 16.1804 60.663C18.6518 61.8871 21.3733 62.5219 24.1312 62.5177H59.0963C62.7798 62.5209 66.4106 61.642 69.6848 59.9545C72.959 58.267 75.7815 55.8199 77.9162 52.818C85.4134 43.0085 84.6143 28.9011 75.5462 20.0555H75.549Z" fill="url(#paint21_radial_17_56)"/>
<path d="M75.549 20.0555C65.7669 10.5205 50.1161 10.6853 40.5812 20.4674C38.1216 22.979 36.2274 25.9875 35.0256 29.291C34.9866 29.3946 34.9248 29.4881 34.8447 29.5645C34.7646 29.6409 34.6684 29.6982 34.5631 29.7323C34.4578 29.7663 34.3461 29.7762 34.2365 29.7611C34.1269 29.7461 34.022 29.7065 33.9298 29.6453C33.0705 29.0747 32.1604 28.5847 31.211 28.1816C28.4999 26.9381 25.5197 26.3962 22.5444 26.6056C19.5691 26.815 16.6941 27.769 14.1839 29.3798C11.6736 30.9907 9.60861 33.2068 8.17867 35.8244C6.74873 38.4419 5.99976 41.3769 6.00061 44.3596C6.00061 48.5476 7.46161 52.4061 9.88653 55.4626C11.5546 57.659 13.7089 59.439 16.1804 60.663C18.6518 61.8871 21.3733 62.5219 24.1312 62.5177H59.0963C62.7798 62.5209 66.4106 61.642 69.6848 59.9545C72.959 58.267 75.7815 55.8199 77.9162 52.818C85.4134 43.0085 84.6143 28.9011 75.5462 20.0555H75.549Z" fill="url(#paint22_linear_17_56)"/>
<g filter="url(#filter5_f_17_56)">
<path d="M42.7562 51.1786C41.0353 53.7888 38.9256 56.1207 36.5002 58.0936H49.0972C46.6586 56.6463 43.8547 52.8813 42.7562 51.1786V51.1786Z" fill="#EAE0FF"/>
</g>
<defs>
<filter id="filter0_i_17_56" x="10.2287" y="13.0143" width="32.8703" height="32.8703" filterUnits="userSpaceOnUse" color-interpolation-filters="sRGB">
<feFlood flood-opacity="0" result="BackgroundImageFix"/>
<feBlend mode="normal" in="SourceGraphic" in2="BackgroundImageFix" result="shape"/>
<feColorMatrix in="SourceAlpha" type="matrix" values="0 0 0 0 0 0 0 0 0 0 0 0 0 0 0 0 0 0 127 0" result="hardAlpha"/>
<feOffset dx="-0.3" dy="0.3"/>
<feGaussianBlur stdDeviation="0.15"/>
<feComposite in2="hardAlpha" operator="arithmetic" k2="-1" k3="1"/>
<feColorMatrix type="matrix" values="0 0 0 0 0.921569 0 0 0 0 0.47451 0 0 0 0 0.133333 0 0 0 1 0"/>
<feBlend mode="normal" in2="shape" result="effect1_innerShadow_17_56"/>
</filter>
<filter id="filter1_i_17_56" x="9.42212" y="63.5902" width="16.5398" height="18.3741" filterUnits="userSpaceOnUse" color-interpolation-filters="sRGB">
<feFlood flood-opacity="0" result="BackgroundImageFix"/>
<feBlend mode="normal" in="SourceGraphic" in2="BackgroundImageFix" result="shape"/>
<feColorMatrix in="SourceAlpha" type="matrix" values="0 0 0 0 0 0 0 0 0 0 0 0 0 0 0 0 0 0 127 0" result="hardAlpha"/>
<feOffset dx="0.6" dy="-0.1"/>
<feGaussianBlur stdDeviation="0.75"/>
<feComposite in2="hardAlpha" operator="arithmetic" k2="-1" k3="1"/>
<feColorMatrix type="matrix" values="0 0 0 0 0.256493 0 0 0 0 0.282719 0 0 0 0 0.741667 0 0 0 1 0"/>
<feBlend mode="normal" in2="shape" result="effect1_innerShadow_17_56"/>
</filter>
<filter id="filter2_i_17_56" x="27.4567" y="63.5902" width="16.5398" height="18.3741" filterUnits="userSpaceOnUse" color-interpolation-filters="sRGB">
<feFlood flood-opacity="0" result="BackgroundImageFix"/>
<feBlend mode="normal" in="SourceGraphic" in2="BackgroundImageFix" result="shape"/>
<feColorMatrix in="SourceAlpha" type="matrix" values="0 0 0 0 0 0 0 0 0 0 0 0 0 0 0 0 0 0 127 0" result="hardAlpha"/>
<feOffset dx="0.6" dy="-0.1"/>
<feGaussianBlur stdDeviation="0.75"/>
<feComposite in2="hardAlpha" operator="arithmetic" k2="-1" k3="1"/>
<feColorMatrix type="matrix" values="0 0 0 0 0.256493 0 0 0 0 0.282719 0 0 0 0 0.741667 0 0 0 1 0"/>
<feBlend mode="normal" in2="shape" result="effect1_innerShadow_17_56"/>
</filter>
<filter id="filter3_i_17_56" x="45.4882" y="63.5902" width="16.5398" height="18.3741" filterUnits="userSpaceOnUse" color-interpolation-filters="sRGB">
<feFlood flood-opacity="0" result="BackgroundImageFix"/>
<feBlend mode="normal" in="SourceGraphic" in2="BackgroundImageFix" result="shape"/>
<feColorMatrix in="SourceAlpha" type="matrix" values="0 0 0 0 0 0 0 0 0 0 0 0 0 0 0 0 0 0 127 0" result="hardAlpha"/>
<feOffset dx="0.6" dy="-0.1"/>
<feGaussianBlur stdDeviation="0.75"/>
<feComposite in2="hardAlpha" operator="arithmetic" k2="-1" k3="1"/>
<feColorMatrix type="matrix" values="0 0 0 0 0.256493 0 0 0 0 0.282719 0 0 0 0 0.741667 0 0 0 1 0"/>
<feBlend mode="normal" in2="shape" result="effect1_innerShadow_17_56"/>
</filter>
<filter id="filter4_i_17_56" x="6.00061" y="12.0159" width="76.9994" height="50.5018" filterUnits="userSpaceOnUse" color-interpolation-filters="sRGB">
<feFlood flood-opacity="0" result="BackgroundImageFix"/>
<feBlend mode="normal" in="SourceGraphic" in2="BackgroundImageFix" result="shape"/>
<feColorMatrix in="SourceAlpha" type="matrix" values="0 0 0 0 0 0 0 0 0 0 0 0 0 0 0 0 0 0 127 0" result="hardAlpha"/>
<feOffset dy="-1"/>
<feGaussianBlur stdDeviation="1"/>
<feComposite in2="hardAlpha" operator="arithmetic" k2="-1" k3="1"/>
<feColorMatrix type="matrix" values="0 0 0 0 0.815686 0 0 0 0 0.784314 0 0 0 0 0.956863 0 0 0 1 0"/>
<feBlend mode="normal" in2="shape" result="effect1_innerShadow_17_56"/>
</filter>
<filter id="filter5_f_17_56" x="35.0002" y="49.6786" width="15.5969" height="9.91504" filterUnits="userSpaceOnUse" color-interpolation-filters="sRGB">
<feFlood flood-opacity="0" result="BackgroundImageFix"/>
<feBlend mode="normal" in="SourceGraphic" in2="BackgroundImageFix" result="shape"/>
<feGaussianBlur stdDeviation="0.75" result="effect1_foregroundBlur_17_56"/>
</filter>
<linearGradient id="paint0_linear_17_56" x1="39.1613" y1="15.1672" x2="15.8953" y2="44.8513" gradientUnits="userSpaceOnUse">
<stop stop-color="#FC8B23"/>
<stop offset="1" stop-color="#E67639"/>
</linearGradient>
<radialGradient id="paint1_radial_17_56" cx="0" cy="0" r="1" gradientUnits="userSpaceOnUse" gradientTransform="translate(30.4338 9.96861) rotate(138.155) scale(5.72746 5.0534)">
<stop offset="0.3" stop-color="#FFA13A"/>
<stop offset="1" stop-color="#FFA13A" stop-opacity="0"/>
</radialGradient>
<radialGradient id="paint2_radial_17_56" cx="0" cy="0" r="1" gradientUnits="userSpaceOnUse" gradientTransform="translate(15.5319 8.16011) rotate(67.811) scale(9.10533 8.03372)">
<stop offset="0.3" stop-color="#FF942A"/>
<stop offset="1" stop-color="#FF942A" stop-opacity="0"/>
</radialGradient>
<radialGradient id="paint3_radial_17_56" cx="0" cy="0" r="1" gradientUnits="userSpaceOnUse" gradientTransform="translate(39.9852 16.6529) rotate(-164.745) scale(3.63041 5.02677)">
<stop offset="0.3" stop-color="#FFA13D"/>
<stop offset="1" stop-color="#FFA13D" stop-opacity="0"/>
</radialGradient>
<radialGradient id="paint4_radial_17_56" cx="0" cy="0" r="1" gradientUnits="userSpaceOnUse" gradientTransform="translate(47.3067 21.9403) rotate(154.195) scale(6.4369 4.75411)">
<stop offset="0.3" stop-color="#FFA13D"/>
<stop offset="1" stop-color="#FFA13D" stop-opacity="0"/>
</radialGradient>
<radialGradient id="paint5_radial_17_56" cx="0" cy="0" r="1" gradientUnits="userSpaceOnUse" gradientTransform="translate(48.7082 32.8289) rotate(-173.379) scale(7.18025 4.04633)">
<stop offset="0.3" stop-color="#FFA13D"/>
<stop offset="1" stop-color="#FFA13D" stop-opacity="0"/>
</radialGradient>
<radialGradient id="paint6_radial_17_56" cx="0" cy="0" r="1" gradientUnits="userSpaceOnUse" gradientTransform="translate(42.2783 41.1741) rotate(-43.9639) scale(6.51306 6.27456)">
<stop stop-color="#E0762A"/>
<stop offset="1" stop-color="#E0762A" stop-opacity="0"/>
</radialGradient>
<radialGradient id="paint7_radial_17_56" cx="0" cy="0" r="1" gradientUnits="userSpaceOnUse" gradientTransform="translate(12.0917 39.6444) rotate(-127.747) scale(4.99323 4.81041)">
<stop stop-color="#E0762A"/>
<stop offset="1" stop-color="#E0762A" stop-opacity="0"/>
</radialGradient>
<radialGradient id="paint8_radial_17_56" cx="0" cy="0" r="1" gradientUnits="userSpaceOnUse" gradientTransform="translate(5.27831 22.7688) rotate(25.2777) scale(5.07063 6.12856)">
<stop stop-color="#F0851D"/>
<stop offset="1" stop-color="#F0851D" stop-opacity="0"/>
</radialGradient>
<radialGradient id="paint9_radial_17_56" cx="0" cy="0" r="1" gradientUnits="userSpaceOnUse" gradientTransform="translate(35.5446 48.4021) rotate(-142.487) scale(5.91179 5.57726)">
<stop offset="0.337" stop-color="#E3745B"/>
<stop offset="1" stop-color="#E3745B" stop-opacity="0"/>
</radialGradient>
<radialGradient id="paint10_radial_17_56" cx="0" cy="0" r="1" gradientUnits="userSpaceOnUse" gradientTransform="translate(35.7559 19.8634) rotate(117.739) scale(29.0568 35.8823)">
<stop offset="0.172" stop-color="#FFD13D"/>
<stop offset="1" stop-color="#D89A29"/>
</radialGradient>
<radialGradient id="paint11_radial_17_56" cx="0" cy="0" r="1" gradientUnits="userSpaceOnUse" gradientTransform="translate(39.8173 26.5183) rotate(168.299) scale(34.6772 29.2776)">
<stop offset="0.62" stop-color="#DCA225" stop-opacity="0"/>
<stop offset="1" stop-color="#DCA225"/>
</radialGradient>
<radialGradient id="paint12_radial_17_56" cx="0" cy="0" r="1" gradientUnits="userSpaceOnUse" gradientTransform="translate(38.2172 27.0542) rotate(-172.463) scale(15.247 15.247)">
<stop offset="0.309" stop-color="#E8E8E9"/>
<stop offset="1" stop-color="#D2D2D2"/>
</radialGradient>
<radialGradient id="paint13_radial_17_56" cx="0" cy="0" r="1" gradientUnits="userSpaceOnUse" gradientTransform="translate(35.4025 30.2369) rotate(-141.242) scale(8.27709 7.58372)">
<stop stop-color="#CDCDCE"/>
<stop offset="1" stop-color="#CDCDCE" stop-opacity="0"/>
</radialGradient>
<radialGradient id="paint14_radial_17_56" cx="0" cy="0" r="1" gradientUnits="userSpaceOnUse" gradientTransform="translate(25.3625 66.2489) rotate(149.241) scale(6.22255 5.39764)">
<stop stop-color="#6779FF"/>
<stop offset="1" stop-color="#6779FF" stop-opacity="0"/>
</radialGradient>
<radialGradient id="paint15_radial_17_56" cx="0" cy="0" r="1" gradientUnits="userSpaceOnUse" gradientTransform="translate(43.3943 66.2488) rotate(149.241) scale(6.22255 5.39764)">
<stop stop-color="#6779FF"/>
<stop offset="1" stop-color="#6779FF" stop-opacity="0"/>
</radialGradient>
<radialGradient id="paint16_radial_17_56" cx="0" cy="0" r="1" gradientUnits="userSpaceOnUse" gradientTransform="translate(61.4308 66.2473) rotate(149.241) scale(6.22255 5.39764)">
<stop stop-color="#6779FF"/>
<stop offset="1" stop-color="#6779FF" stop-opacity="0"/>
</radialGradient>
<linearGradient id="paint17_linear_17_56" x1="52.3653" y1="59.8539" x2="52.3653" y2="39.194" gradientUnits="userSpaceOnUse">
<stop stop-color="#DED7FA"/>
<stop offset="1" stop-color="#DED7FA" stop-opacity="0"/>
</linearGradient>
<radialGradient id="paint18_radial_17_56" cx="0" cy="0" r="1" gradientUnits="userSpaceOnUse" gradientTransform="translate(73.0252 29.6563) rotate(136.5) scale(30.6732 32.9032)">
<stop offset="0.179" stop-color="#FCFBFE"/>
<stop offset="1" stop-color="#FCFBFE" stop-opacity="0"/>
</radialGradient>
<radialGradient id="paint19_radial_17_56" cx="0" cy="0" r="1" gradientUnits="userSpaceOnUse" gradientTransform="translate(24.3102 41.4183) rotate(144.444) scale(18.8178 19.7182)">
<stop stop-color="#FCFBFE"/>
<stop offset="1" stop-color="#FCFBFE" stop-opacity="0"/>
</radialGradient>
<radialGradient id="paint20_radial_17_56" cx="0" cy="0" r="1" gradientUnits="userSpaceOnUse" gradientTransform="translate(69.8368 36.2967) rotate(166.654) scale(65.6075 51.6682)">
<stop offset="0.815" stop-color="#CECCD7" stop-opacity="0"/>
<stop offset="1" stop-color="#CECCD7"/>
</radialGradient>
<radialGradient id="paint21_radial_17_56" cx="0" cy="0" r="1" gradientUnits="userSpaceOnUse" gradientTransform="translate(16.0244 65.3134) rotate(-50.572) scale(23.3604 32.238)">
<stop stop-color="#D0C9EE"/>
<stop offset="1" stop-color="#D0C9EE" stop-opacity="0"/>
</radialGradient>
<linearGradient id="paint22_linear_17_56" x1="63.0069" y1="67.6559" x2="63.2019" y2="50.4068" gradientUnits="userSpaceOnUse">
<stop stop-color="#CFC6FF"/>
<stop offset="1" stop-color="#CFC6FF" stop-opacity="0"/>
</linearGradient>
</defs>
</svg>
