<svg width="90" height="90" viewBox="0 0 90 90" fill="none" xmlns="http://www.w3.org/2000/svg">
<path d="M68.3433 40.4179L48.0881 8.32704C47.7942 7.91666 47.406 7.58211 46.9558 7.35127C46.5056 7.12044 46.0065 7 45.5 7C44.9935 7 44.4944 7.12044 44.0442 7.35127C43.594 7.58211 43.2058 7.91666 42.9119 8.32704L22.565 40.5699C19.7383 45.1065 18.1637 50.3043 18 55.6395C18 62.8959 20.8973 69.8552 26.0546 74.9863C31.2118 80.1174 38.2065 83 45.5 83C52.7935 83 59.7882 80.1174 64.9454 74.9863C70.1027 69.8552 73 62.8959 73 55.6395C72.8244 50.2458 71.2178 44.9943 68.3433 40.4179V40.4179ZM45.5 76.9199C39.8295 76.9126 34.3934 74.6683 30.3838 70.679C26.3742 66.6897 24.1184 61.2812 24.1111 55.6395C24.2735 51.3882 25.557 47.2543 27.8328 43.6525L30.6897 39.1228L61.4714 69.7484C59.4722 72.0019 57.0144 73.807 54.2609 75.0439C51.5074 76.2808 48.5211 76.9213 45.5 76.9229V76.9199Z" fill="white"/>
</svg>
