<svg width="90" height="90" viewBox="0 0 90 90" fill="none" xmlns="http://www.w3.org/2000/svg">
<path d="M44.9999 83C39.5868 78.452 34.5694 73.466 30 68.0942C23.1428 60.0272 15 48.013 15 36.5646C14.997 30.7178 16.755 25.0015 20.0515 20.1393C23.348 15.277 28.0348 11.4872 33.5188 9.24962C39.0028 7.01202 45.0374 6.42716 50.859 7.56905C56.6805 8.71095 62.0273 11.5283 66.2227 15.6645C69.016 18.4036 71.2299 21.6611 72.7365 25.2486C74.2431 28.8361 75.0124 32.6823 74.9998 36.5646C74.9998 48.013 66.857 60.0272 59.9999 68.0942C55.4305 73.466 50.413 78.452 44.9999 83ZM44.9999 23.9004C41.59 23.9004 38.3198 25.2347 35.9086 27.6097C33.4974 29.9847 32.1428 33.2059 32.1428 36.5646C32.1428 39.9234 33.4974 43.1446 35.9086 45.5196C38.3198 47.8946 41.59 49.2288 44.9999 49.2288C48.4098 49.2288 51.6801 47.8946 54.0913 45.5196C56.5025 43.1446 57.857 39.9234 57.857 36.5646C57.857 33.2059 56.5025 29.9847 54.0913 27.6097C51.6801 25.2347 48.4098 23.9004 44.9999 23.9004Z" fill="white"/>
</svg>
