<svg width="90" height="90" viewBox="0 0 90 90" fill="none" xmlns="http://www.w3.org/2000/svg">
<g filter="url(#filter0_i_17_56)">
<path d="M45 81C64.8823 81 81 64.8823 81 45C81 25.1177 64.8823 9 45 9C25.1177 9 9 25.1177 9 45C9 64.8823 25.1177 81 45 81Z" fill="url(#paint0_radial_17_56)"/>
</g>
<path d="M45 81C64.8823 81 81 64.8823 81 45C81 25.1177 64.8823 9 45 9C25.1177 9 9 25.1177 9 45C9 64.8823 25.1177 81 45 81Z" fill="url(#paint1_radial_17_56)"/>
<g filter="url(#filter1_f_17_56)">
<path d="M44.2389 21.8571C46.6588 21.8571 48.6206 20.1302 48.6206 18C48.6206 15.8697 46.6588 14.1428 44.2389 14.1428C41.8189 14.1428 39.8572 15.8697 39.8572 18C39.8572 20.1302 41.8189 21.8571 44.2389 21.8571Z" fill="url(#paint2_radial_17_56)"/>
<path d="M44.2389 21.8571C46.6588 21.8571 48.6206 20.1302 48.6206 18C48.6206 15.8697 46.6588 14.1428 44.2389 14.1428C41.8189 14.1428 39.8572 15.8697 39.8572 18C39.8572 20.1302 41.8189 21.8571 44.2389 21.8571Z" fill="url(#paint3_radial_17_56)"/>
<path d="M44.2387 21.9858C46.7124 21.9858 48.749 20.2166 48.749 18.0001C48.749 15.7835 46.7124 14.0143 44.2387 14.0143C41.7624 14.0143 39.7284 15.7835 39.7284 18.0001C39.7284 20.2166 41.7624 21.9858 44.2387 21.9858V21.9858Z" stroke="url(#paint4_linear_17_56)" stroke-width="0.1"/>
</g>
<g filter="url(#filter2_f_17_56)">
<path d="M28.2856 45C33.2562 45 37.2856 40.9706 37.2856 36C37.2856 31.0294 33.2562 27 28.2856 27C23.3151 27 19.2856 31.0294 19.2856 36C19.2856 40.9706 23.3151 45 28.2856 45Z" stroke="url(#paint5_linear_17_56)" stroke-width="0.2"/>
</g>
<path d="M28.2856 45C33.2562 45 37.2856 40.9706 37.2856 36C37.2856 31.0294 33.2562 27 28.2856 27C23.3151 27 19.2856 31.0294 19.2856 36C19.2856 40.9706 23.3151 45 28.2856 45Z" fill="url(#paint6_radial_17_56)"/>
<path d="M28.2856 45C33.2562 45 37.2856 40.9706 37.2856 36C37.2856 31.0294 33.2562 27 28.2856 27C23.3151 27 19.2856 31.0294 19.2856 36C19.2856 40.9706 23.3151 45 28.2856 45Z" fill="url(#paint7_radial_17_56)"/>
<path d="M28.2856 45C33.2562 45 37.2856 40.9706 37.2856 36C37.2856 31.0294 33.2562 27 28.2856 27C23.3151 27 19.2856 31.0294 19.2856 36C19.2856 40.9706 23.3151 45 28.2856 45Z" fill="url(#paint8_radial_17_56)"/>
<g filter="url(#filter3_f_17_56)">
<path d="M61.7142 39.8571C65.2646 39.8571 68.1428 36.979 68.1428 33.4286C68.1428 29.8782 65.2646 27 61.7142 27C58.1638 27 55.2856 29.8782 55.2856 33.4286C55.2856 36.979 58.1638 39.8571 61.7142 39.8571Z" fill="url(#paint9_radial_17_56)"/>
<path d="M61.7144 40.1144C65.4068 40.1144 68.4001 37.1211 68.4001 33.4286C68.4001 29.7362 65.4068 26.7429 61.7144 26.7429C58.022 26.7429 55.0287 29.7362 55.0287 33.4286C55.0287 37.1211 58.022 40.1144 61.7144 40.1144Z" stroke="url(#paint10_linear_17_56)" stroke-width="0.2"/>
</g>
<g filter="url(#filter4_f_17_56)">
<path d="M46.2857 65.5714C49.8362 65.5714 52.7143 62.6932 52.7143 59.1428C52.7143 55.5924 49.8362 52.7142 46.2857 52.7142C42.7353 52.7142 39.8572 55.5924 39.8572 59.1428C39.8572 62.6932 42.7353 65.5714 46.2857 65.5714Z" stroke="url(#paint11_linear_17_56)" stroke-width="0.25"/>
</g>
<path d="M46.2857 65.5714C49.8362 65.5714 52.7143 62.6932 52.7143 59.1428C52.7143 55.5924 49.8362 52.7142 46.2857 52.7142C42.7353 52.7142 39.8572 55.5924 39.8572 59.1428C39.8572 62.6932 42.7353 65.5714 46.2857 65.5714Z" fill="url(#paint12_radial_17_56)"/>
<path d="M46.2857 65.5714C49.8362 65.5714 52.7143 62.6932 52.7143 59.1428C52.7143 55.5924 49.8362 52.7142 46.2857 52.7142C42.7353 52.7142 39.8572 55.5924 39.8572 59.1428C39.8572 62.6932 42.7353 65.5714 46.2857 65.5714Z" fill="url(#paint13_radial_17_56)"/>
<path d="M46.2857 65.5714C49.8362 65.5714 52.7143 62.6932 52.7143 59.1428C52.7143 55.5924 49.8362 52.7142 46.2857 52.7142C42.7353 52.7142 39.8572 55.5924 39.8572 59.1428C39.8572 62.6932 42.7353 65.5714 46.2857 65.5714Z" fill="url(#paint14_radial_17_56)"/>
<path d="M46.2857 65.5714C49.8362 65.5714 52.7143 62.6932 52.7143 59.1428C52.7143 55.5924 49.8362 52.7142 46.2857 52.7142C42.7353 52.7142 39.8572 55.5924 39.8572 59.1428C39.8572 62.6932 42.7353 65.5714 46.2857 65.5714Z" fill="url(#paint15_radial_17_56)"/>
<g filter="url(#filter5_f_17_56)">
<path d="M30.258 77.3434C24.7151 74.8068 19.9038 70.9094 16.272 66.0137C17.9228 63.9231 20.2757 63 23.1428 63C25.5298 63 27.819 63.9482 29.5068 65.636C31.1946 67.3239 32.1428 69.6131 32.1428 72C32.1428 74.1909 31.5591 75.7826 30.258 77.3434Z" stroke="url(#paint16_linear_17_56)" stroke-width="0.2"/>
</g>
<path d="M30.0575 77.7599C24.5149 75.2241 19.7037 71.3275 16.0715 66.4328C16.8112 65.5017 17.728 64.7265 18.7691 64.1518C19.8101 63.5772 20.9547 63.2145 22.1367 63.0848C23.3187 62.9551 24.5147 63.0609 25.6556 63.3961C26.7965 63.7313 27.8596 64.2893 28.7836 65.0378C29.7076 65.7862 30.4741 66.7104 31.0388 67.7569C31.6035 68.8033 31.9553 69.9513 32.0737 71.1345C32.1922 72.3177 32.075 73.5126 31.7289 74.6503C31.3829 75.7879 30.8148 76.8457 30.0575 77.7625V77.7599Z" fill="url(#paint17_linear_17_56)"/>
<g filter="url(#filter6_f_17_56)">
<path d="M77.7087 58.5412C75.4278 64.0903 72.193 68.688 67.6235 72.4423C66.2144 70.8532 65.5715 69.1509 65.5715 66.8572C65.5715 64.4702 66.5197 62.181 68.2076 60.4932C69.8954 58.8054 72.1846 57.8572 74.5715 57.8572C75.9087 57.8572 76.5695 58.0192 77.7087 58.5412Z" stroke="url(#paint18_linear_17_56)" stroke-width="0.25"/>
</g>
<path d="M78.3128 58.6698C76.0442 64.1823 72.446 69.0474 67.8393 72.8306C66.4673 71.2869 65.668 69.3183 65.5755 67.2551C65.4829 65.1919 66.1028 63.1596 67.3311 61.4992C68.5594 59.8389 70.3214 58.6515 72.3214 58.1363C74.3214 57.6211 76.4377 57.8095 78.3153 58.6698H78.3128Z" fill="url(#paint19_radial_17_56)"/>
<path d="M78.3128 58.6698C76.0442 64.1823 72.446 69.0474 67.8393 72.8306C66.4673 71.2869 65.668 69.3183 65.5755 67.2551C65.4829 65.1919 66.1028 63.1596 67.3311 61.4992C68.5594 59.8389 70.3214 58.6515 72.3214 58.1363C74.3214 57.6211 76.4377 57.8095 78.3153 58.6698H78.3128Z" fill="url(#paint20_radial_17_56)"/>
<path d="M78.3128 58.6698C76.0442 64.1823 72.446 69.0474 67.8393 72.8306C66.4673 71.2869 65.668 69.3183 65.5755 67.2551C65.4829 65.1919 66.1028 63.1596 67.3311 61.4992C68.5594 59.8389 70.3214 58.6515 72.3214 58.1363C74.3214 57.6211 76.4377 57.8095 78.3153 58.6698H78.3128Z" fill="url(#paint21_radial_17_56)"/>
<defs>
<filter id="filter0_i_17_56" x="9" y="3" width="80" height="78" filterUnits="userSpaceOnUse" color-interpolation-filters="sRGB">
<feFlood flood-opacity="0" result="BackgroundImageFix"/>
<feBlend mode="normal" in="SourceGraphic" in2="BackgroundImageFix" result="shape"/>
<feColorMatrix in="SourceAlpha" type="matrix" values="0 0 0 0 0 0 0 0 0 0 0 0 0 0 0 0 0 0 127 0" result="hardAlpha"/>
<feOffset dx="8" dy="-6"/>
<feGaussianBlur stdDeviation="4"/>
<feComposite in2="hardAlpha" operator="arithmetic" k2="-1" k3="1"/>
<feColorMatrix type="matrix" values="0 0 0 0 0.329412 0 0 0 0 0.215686 0 0 0 0 0.447059 0 0 0 1 0"/>
<feBlend mode="normal" in2="shape" result="effect1_innerShadow_17_56"/>
</filter>
<filter id="filter1_f_17_56" x="39.4783" y="13.7644" width="9.52061" height="8.47141" filterUnits="userSpaceOnUse" color-interpolation-filters="sRGB">
<feFlood flood-opacity="0" result="BackgroundImageFix"/>
<feBlend mode="normal" in="SourceGraphic" in2="BackgroundImageFix" result="shape"/>
<feGaussianBlur stdDeviation="0.1" result="effect1_foregroundBlur_17_56"/>
</filter>
<filter id="filter2_f_17_56" x="18.9857" y="26.7" width="18.6" height="18.6" filterUnits="userSpaceOnUse" color-interpolation-filters="sRGB">
<feFlood flood-opacity="0" result="BackgroundImageFix"/>
<feBlend mode="normal" in="SourceGraphic" in2="BackgroundImageFix" result="shape"/>
<feGaussianBlur stdDeviation="0.1" result="effect1_foregroundBlur_17_56"/>
</filter>
<filter id="filter3_f_17_56" x="54.7287" y="26.4429" width="13.9714" height="13.9714" filterUnits="userSpaceOnUse" color-interpolation-filters="sRGB">
<feFlood flood-opacity="0" result="BackgroundImageFix"/>
<feBlend mode="normal" in="SourceGraphic" in2="BackgroundImageFix" result="shape"/>
<feGaussianBlur stdDeviation="0.1" result="effect1_foregroundBlur_17_56"/>
</filter>
<filter id="filter4_f_17_56" x="39.4822" y="52.3392" width="13.6072" height="13.6071" filterUnits="userSpaceOnUse" color-interpolation-filters="sRGB">
<feFlood flood-opacity="0" result="BackgroundImageFix"/>
<feBlend mode="normal" in="SourceGraphic" in2="BackgroundImageFix" result="shape"/>
<feGaussianBlur stdDeviation="0.125" result="effect1_foregroundBlur_17_56"/>
</filter>
<filter id="filter5_f_17_56" x="15.946" y="62.7" width="16.4968" height="14.9662" filterUnits="userSpaceOnUse" color-interpolation-filters="sRGB">
<feFlood flood-opacity="0" result="BackgroundImageFix"/>
<feBlend mode="normal" in="SourceGraphic" in2="BackgroundImageFix" result="shape"/>
<feGaussianBlur stdDeviation="0.1" result="effect1_foregroundBlur_17_56"/>
</filter>
<filter id="filter6_f_17_56" x="65.1965" y="57.4822" width="12.9235" height="15.3831" filterUnits="userSpaceOnUse" color-interpolation-filters="sRGB">
<feFlood flood-opacity="0" result="BackgroundImageFix"/>
<feBlend mode="normal" in="SourceGraphic" in2="BackgroundImageFix" result="shape"/>
<feGaussianBlur stdDeviation="0.125" result="effect1_foregroundBlur_17_56"/>
</filter>
<radialGradient id="paint0_radial_17_56" cx="0" cy="0" r="1" gradientUnits="userSpaceOnUse" gradientTransform="translate(68.0948 33.2056) rotate(141.611) scale(60.9367)">
<stop offset="0.079" stop-color="#9E77C9"/>
<stop offset="1" stop-color="#6D3D9C"/>
</radialGradient>
<radialGradient id="paint1_radial_17_56" cx="0" cy="0" r="1" gradientUnits="userSpaceOnUse" gradientTransform="translate(62.7964 32.7684) rotate(154.299) scale(59.7009)">
<stop offset="0.673" stop-color="#494054" stop-opacity="0"/>
<stop offset="1" stop-color="#494054"/>
</radialGradient>
<radialGradient id="paint2_radial_17_56" cx="0" cy="0" r="1" gradientUnits="userSpaceOnUse" gradientTransform="translate(47.1343 18) rotate(180) scale(6.45645 7.02069)">
<stop offset="0.286" stop-color="#79529B"/>
<stop offset="1" stop-color="#A276C9"/>
</radialGradient>
<radialGradient id="paint3_radial_17_56" cx="0" cy="0" r="1" gradientUnits="userSpaceOnUse" gradientTransform="translate(43.1023 18) scale(5.51824 4.85823)">
<stop offset="0.711" stop-color="#664581" stop-opacity="0"/>
<stop offset="1" stop-color="#664581"/>
</radialGradient>
<linearGradient id="paint4_linear_17_56" x1="47.7101" y1="14.9066" x2="41.0527" y2="21.4535" gradientUnits="userSpaceOnUse">
<stop stop-color="#7B52A5"/>
<stop offset="1" stop-color="#875CB4"/>
</linearGradient>
<linearGradient id="paint5_linear_17_56" x1="37.2856" y1="29.43" x2="20.7565" y2="42.5957" gradientUnits="userSpaceOnUse">
<stop stop-color="#603D83"/>
<stop offset="1" stop-color="#603D83" stop-opacity="0"/>
</linearGradient>
<radialGradient id="paint6_radial_17_56" cx="0" cy="0" r="1" gradientUnits="userSpaceOnUse" gradientTransform="translate(24.6034 35.28) rotate(10.3889) scale(14.0751 16.3863)">
<stop stop-color="#6D4A8D"/>
<stop offset="1" stop-color="#60427C"/>
</radialGradient>
<radialGradient id="paint7_radial_17_56" cx="0" cy="0" r="1" gradientUnits="userSpaceOnUse" gradientTransform="translate(29.0494 36) rotate(-166.271) scale(10.052 11.1331)">
<stop offset="0.886" stop-color="#8260A1" stop-opacity="0"/>
<stop offset="1" stop-color="#8260A1"/>
</radialGradient>
<radialGradient id="paint8_radial_17_56" cx="0" cy="0" r="1" gradientUnits="userSpaceOnUse" gradientTransform="translate(33.4701 26.0368) rotate(109.781) scale(20.1525)">
<stop offset="0.82" stop-color="#614879" stop-opacity="0"/>
<stop offset="1" stop-color="#614879"/>
</radialGradient>
<radialGradient id="paint9_radial_17_56" cx="0" cy="0" r="1" gradientUnits="userSpaceOnUse" gradientTransform="translate(55.2856 38.304) rotate(-37.9457) scale(22.5529 7.42163)">
<stop offset="0.2" stop-color="#B085D8"/>
<stop offset="1" stop-color="#8E61B7"/>
</radialGradient>
<linearGradient id="paint10_linear_17_56" x1="56.7695" y1="27.0001" x2="64.6613" y2="39.8572" gradientUnits="userSpaceOnUse">
<stop stop-color="#A57CD3"/>
<stop offset="0.492" stop-color="#A57CD3" stop-opacity="0"/>
<stop offset="1" stop-color="#A57CD3"/>
</linearGradient>
<linearGradient id="paint11_linear_17_56" x1="52.7143" y1="54.4499" x2="40.9089" y2="63.8537" gradientUnits="userSpaceOnUse">
<stop stop-color="#683B92"/>
<stop offset="1" stop-color="#683B92" stop-opacity="0"/>
</linearGradient>
<radialGradient id="paint12_radial_17_56" cx="0" cy="0" r="1" gradientUnits="userSpaceOnUse" gradientTransform="translate(43.6423 64.3114) rotate(-58.7173) scale(11.3735 13.2411)">
<stop stop-color="#724D94"/>
<stop offset="1" stop-color="#6F4197"/>
</radialGradient>
<radialGradient id="paint13_radial_17_56" cx="0" cy="0" r="1" gradientUnits="userSpaceOnUse" gradientTransform="translate(47.0895 57.9124) rotate(118.54) scale(7.98326 8.23094)">
<stop offset="0.789" stop-color="#8B72A3" stop-opacity="0"/>
<stop offset="1" stop-color="#8B72A3"/>
</radialGradient>
<radialGradient id="paint14_radial_17_56" cx="0" cy="0" r="1" gradientUnits="userSpaceOnUse" gradientTransform="translate(41.58 64.6508) rotate(-50.5275) scale(14.25 9.98134)">
<stop offset="0.8" stop-color="#64398C" stop-opacity="0"/>
<stop offset="1" stop-color="#64398C"/>
</radialGradient>
<radialGradient id="paint15_radial_17_56" cx="0" cy="0" r="1" gradientUnits="userSpaceOnUse" gradientTransform="translate(44.1669 57.5305) rotate(40.079) scale(9.90633 10.5072)">
<stop offset="0.825" stop-color="#664289" stop-opacity="0"/>
<stop offset="1" stop-color="#664289"/>
</radialGradient>
<linearGradient id="paint16_linear_17_56" x1="18.504" y1="64.5737" x2="32.526" y2="74.7849" gradientUnits="userSpaceOnUse">
<stop stop-color="#372447"/>
<stop offset="0.213" stop-color="#372447" stop-opacity="0"/>
<stop offset="0.806" stop-color="#654E72" stop-opacity="0"/>
<stop offset="1" stop-color="#654E72"/>
</linearGradient>
<linearGradient id="paint17_linear_17_56" x1="17.6427" y1="66.9368" x2="32.143" y2="76.8214" gradientUnits="userSpaceOnUse">
<stop stop-color="#50425C"/>
<stop offset="1" stop-color="#64497D"/>
</linearGradient>
<linearGradient id="paint18_linear_17_56" x1="75.4175" y1="56.8929" x2="64.4015" y2="69.4157" gradientUnits="userSpaceOnUse">
<stop stop-color="#7045A0"/>
<stop offset="0.495" stop-color="#7045A0" stop-opacity="0"/>
<stop offset="1" stop-color="#7F58A9"/>
</linearGradient>
<radialGradient id="paint19_radial_17_56" cx="0" cy="0" r="1" gradientUnits="userSpaceOnUse" gradientTransform="translate(74.4605 56.4911) rotate(105.599) scale(15.1579 12.9005)">
<stop stop-color="#875CB5"/>
<stop offset="1" stop-color="#9464BF"/>
</radialGradient>
<radialGradient id="paint20_radial_17_56" cx="0" cy="0" r="1" gradientUnits="userSpaceOnUse" gradientTransform="translate(75.9815 62.0348) rotate(131.539) scale(14.4204 9.54239)">
<stop offset="0.857" stop-color="#9979BA" stop-opacity="0"/>
<stop offset="0.926" stop-color="#9979BA"/>
</radialGradient>
<radialGradient id="paint21_radial_17_56" cx="0" cy="0" r="1" gradientUnits="userSpaceOnUse" gradientTransform="translate(74.2541 69.3094) rotate(-92.086) scale(12.142 12.2336)">
<stop offset="0.851" stop-color="#663F90" stop-opacity="0"/>
<stop offset="0.929" stop-color="#663F90"/>
</radialGradient>
</defs>
</svg>
