<svg width="79" height="79" viewBox="0 0 79 79" fill="none" xmlns="http://www.w3.org/2000/svg">
<path d="M29.5626 10.9562C28.0841 14.722 26.9759 18.6277 26.2543 22.6159H52.7407C52.0189 18.6277 50.9107 14.722 49.4324 10.9562C47.9461 7.27228 46.2327 4.45283 44.4551 2.59832C42.6873 0.748839 41.0134 0 39.4975 0C37.9816 0 36.3077 0.748839 34.54 2.59832C32.7623 4.45785 31.0539 7.27228 29.5626 10.9562ZM29.0787 1.41224C27.5283 3.55322 26.1654 6.14148 24.9902 9.04135C23.4101 12.9614 22.1263 17.555 21.2276 22.6159H3.96505C6.43149 17.4681 9.94747 12.9144 14.2787 9.25822C18.61 5.60202 23.6571 2.92729 29.0837 1.41224H29.0787ZM53.9949 9.04135C52.9403 6.34031 51.5692 3.77874 49.9113 1.41224C55.338 2.92729 60.385 5.60202 64.7163 9.25822C69.0476 12.9144 72.5635 17.4681 75.03 22.6159H57.7625C56.8638 17.555 55.5898 12.9564 53.9999 9.04638L53.9949 9.04135ZM77.0347 27.6417H58.5081C58.992 31.6372 59.2487 35.8538 59.2487 40.2061C59.2487 44.5584 58.992 48.775 58.5081 52.7705H77.0347C78.3416 48.7153 79.005 44.4739 79 40.2061C79.005 35.9383 78.3416 31.6969 77.0347 27.6417V27.6417ZM57.7625 57.7963H75.03C72.5641 62.9436 69.0488 67.497 64.7185 71.1531C60.3881 74.8093 55.342 77.4843 49.9163 79C51.5744 76.6336 52.9455 74.072 53.9999 71.3709C55.5849 67.4508 56.8638 62.8572 57.7625 57.7963V57.7963ZM37.3348 60.0076C37.6705 59.2889 37.9717 58.5502 38.2334 57.7963H52.7407C52.019 61.7846 50.9108 65.6902 49.4324 69.4561C49.126 70.22 48.7967 70.9743 48.4448 71.7177C48.109 71.1092 47.6919 70.5511 47.2054 70.0592L37.3298 60.0076H37.3348ZM39.3593 52.7705H53.5308C54.0344 48.8203 54.3109 44.6037 54.3109 40.2061C54.3109 35.8086 54.0344 31.5869 53.5308 27.6417H25.4643L25.2816 29.1494C29.8627 30.9504 33.729 34.2448 36.2767 38.518C38.8244 42.7913 39.91 47.803 39.3642 52.7705H39.3593ZM20.487 27.6417L20.4573 27.8729C19.4041 27.7191 18.3414 27.6418 17.2774 27.6417H20.487V27.6417ZM1.9603 27.6417H17.2774C14.0281 27.639 10.8179 28.3633 7.87403 29.7633C4.9302 31.1633 2.3247 33.2048 0.241946 35.7432C0.543152 32.9489 1.13075 30.235 1.97018 27.6417H1.9603ZM17.2774 67.8478C21.1585 67.8478 24.7433 66.5411 27.627 64.3449L40.2184 77.1606C40.4477 77.3942 40.7199 77.5796 41.0195 77.7062C41.3191 77.8327 41.6403 77.898 41.9647 77.8982C42.2891 77.8985 42.6103 77.8337 42.9101 77.7075C43.2099 77.5814 43.4824 77.3964 43.7119 77.1631C43.9415 76.9298 44.1236 76.6527 44.248 76.3478C44.3723 76.0428 44.4365 75.7159 44.4367 75.3857C44.4369 75.0556 44.3733 74.7286 44.2493 74.4234C44.1254 74.1183 43.9436 73.841 43.7144 73.6074L31.123 60.7917C33.4537 57.6193 34.6641 53.7391 34.5583 49.7793C34.4524 45.8195 33.0365 42.012 30.5398 38.9733C28.0431 35.9346 24.6117 33.8426 20.8014 33.036C16.991 32.2294 13.0247 32.7555 9.54463 34.529C6.06459 36.3025 3.27458 39.2197 1.62636 42.8082C-0.0218714 46.3967 -0.431818 50.4463 0.462897 54.3015C1.35761 58.1566 3.5046 61.5915 6.55623 64.05C9.60786 66.5085 13.3855 67.8467 17.2774 67.8478V67.8478ZM17.2774 62.8221C14.0034 62.8221 10.8635 61.4983 8.54849 59.142C6.23344 56.7857 4.93286 53.5899 4.93286 50.2576C4.93286 46.9254 6.23344 43.7296 8.54849 41.3733C10.8635 39.017 14.0034 37.6932 17.2774 37.6932C20.5513 37.6932 23.6912 39.017 26.0063 41.3733C28.3213 43.7296 29.6219 46.9254 29.6219 50.2576C29.6219 53.5899 28.3213 56.7857 26.0063 59.142C23.6912 61.4983 20.5513 62.8221 17.2774 62.8221V62.8221Z" fill="white"/>
</svg>
