<svg width="90" height="90" viewBox="0 0 90 90" fill="none" xmlns="http://www.w3.org/2000/svg">
<path d="M29.3545 9.54112C32.6193 5.86671 37.0602 6.45181 39.9008 9.54112L41.6327 11.548C41.9286 11.8696 42.2941 12.1192 42.7012 12.2779C43.1084 12.4366 43.5464 12.5002 43.9819 12.4637L47.0624 11.548C51.2605 10.647 55.0753 13.7801 55.0753 18.6423V20.4766C55.1631 21.4742 56.0378 22.1529 56.9388 22.5946L59.721 23.756C63.7464 25.722 64.7528 30.3852 61.8215 34.3024L60.9877 35.3995C60.2417 36.4117 60.3938 37.7369 61.1369 38.7491L61.9707 39.9164C65.0044 43.6464 63.293 48.766 59.0101 50.5535L56.617 51.554C55.7131 51.9313 55.3591 52.5779 55.1923 53.5433L55.0256 56.6706C54.9234 57.5446 54.6484 58.3895 54.2165 59.1561C53.7846 59.9227 53.2045 60.5957 52.5099 61.1359C51.8153 61.6761 51.0202 62.0727 50.1708 62.3026C49.3215 62.5324 48.4349 62.591 47.5627 62.4748L43.9146 61.5006C43.0369 61.3777 41.9487 61.6674 41.3665 62.583L40.05 64.3822C36.7852 68.0625 32.3765 67.454 30.156 65.2979L27.7279 62.3578C27.0901 61.7434 26.2915 61.2168 25.329 61.5796L21.6605 62.583C18.6267 63.0131 15.0576 60.6815 14.4872 57.6741L14.063 53.321C13.9779 52.8745 13.7879 52.4546 13.5087 52.096C13.2294 51.7374 12.8689 51.4503 12.4569 51.2585L9.88246 50.3721C6.00912 48.567 4.71313 44.1993 6.9365 40.5512L8.38754 38.5414C8.6733 38.0729 8.81858 37.5322 8.80614 36.9835C8.79369 36.4349 8.62404 35.9013 8.31733 35.4463L7.2349 33.9162C4.16899 29.5514 6.28704 24.6717 10.8303 23.209L11.8308 22.8872C12.9367 22.5303 14.0045 21.6146 14.0981 20.4561L14.3204 17.6476C14.6832 13.0839 18.8461 10.4656 23.2227 11.7967L24.6415 12.2267C26.0077 12.7592 27.0784 12.3057 27.8215 11.4953L29.3545 9.53819V9.54112Z" fill="url(#paint0_linear_17_56)"/>
<path d="M29.3545 9.54112C32.6193 5.86671 37.0602 6.45181 39.9008 9.54112L41.6327 11.548C41.9286 11.8696 42.2941 12.1192 42.7012 12.2779C43.1084 12.4366 43.5464 12.5002 43.9819 12.4637L47.0624 11.548C51.2605 10.647 55.0753 13.7801 55.0753 18.6423V20.4766C55.1631 21.4742 56.0378 22.1529 56.9388 22.5946L59.721 23.756C63.7464 25.722 64.7528 30.3852 61.8215 34.3024L60.9877 35.3995C60.2417 36.4117 60.3938 37.7369 61.1369 38.7491L61.9707 39.9164C65.0044 43.6464 63.293 48.766 59.0101 50.5535L56.617 51.554C55.7131 51.9313 55.3591 52.5779 55.1923 53.5433L55.0256 56.6706C54.9234 57.5446 54.6484 58.3895 54.2165 59.1561C53.7846 59.9227 53.2045 60.5957 52.5099 61.1359C51.8153 61.6761 51.0202 62.0727 50.1708 62.3026C49.3215 62.5324 48.4349 62.591 47.5627 62.4748L43.9146 61.5006C43.0369 61.3777 41.9487 61.6674 41.3665 62.583L40.05 64.3822C36.7852 68.0625 32.3765 67.454 30.156 65.2979L27.7279 62.3578C27.0901 61.7434 26.2915 61.2168 25.329 61.5796L21.6605 62.583C18.6267 63.0131 15.0576 60.6815 14.4872 57.6741L14.063 53.321C13.9779 52.8745 13.7879 52.4546 13.5087 52.096C13.2294 51.7374 12.8689 51.4503 12.4569 51.2585L9.88246 50.3721C6.00912 48.567 4.71313 44.1993 6.9365 40.5512L8.38754 38.5414C8.6733 38.0729 8.81858 37.5322 8.80614 36.9835C8.79369 36.4349 8.62404 35.9013 8.31733 35.4463L7.2349 33.9162C4.16899 29.5514 6.28704 24.6717 10.8303 23.209L11.8308 22.8872C12.9367 22.5303 14.0045 21.6146 14.0981 20.4561L14.3204 17.6476C14.6832 13.0839 18.8461 10.4656 23.2227 11.7967L24.6415 12.2267C26.0077 12.7592 27.0784 12.3057 27.8215 11.4953L29.3545 9.53819V9.54112Z" fill="url(#paint1_radial_17_56)"/>
<path d="M29.3545 9.54112C32.6193 5.86671 37.0602 6.45181 39.9008 9.54112L41.6327 11.548C41.9286 11.8696 42.2941 12.1192 42.7012 12.2779C43.1084 12.4366 43.5464 12.5002 43.9819 12.4637L47.0624 11.548C51.2605 10.647 55.0753 13.7801 55.0753 18.6423V20.4766C55.1631 21.4742 56.0378 22.1529 56.9388 22.5946L59.721 23.756C63.7464 25.722 64.7528 30.3852 61.8215 34.3024L60.9877 35.3995C60.2417 36.4117 60.3938 37.7369 61.1369 38.7491L61.9707 39.9164C65.0044 43.6464 63.293 48.766 59.0101 50.5535L56.617 51.554C55.7131 51.9313 55.3591 52.5779 55.1923 53.5433L55.0256 56.6706C54.9234 57.5446 54.6484 58.3895 54.2165 59.1561C53.7846 59.9227 53.2045 60.5957 52.5099 61.1359C51.8153 61.6761 51.0202 62.0727 50.1708 62.3026C49.3215 62.5324 48.4349 62.591 47.5627 62.4748L43.9146 61.5006C43.0369 61.3777 41.9487 61.6674 41.3665 62.583L40.05 64.3822C36.7852 68.0625 32.3765 67.454 30.156 65.2979L27.7279 62.3578C27.0901 61.7434 26.2915 61.2168 25.329 61.5796L21.6605 62.583C18.6267 63.0131 15.0576 60.6815 14.4872 57.6741L14.063 53.321C13.9779 52.8745 13.7879 52.4546 13.5087 52.096C13.2294 51.7374 12.8689 51.4503 12.4569 51.2585L9.88246 50.3721C6.00912 48.567 4.71313 44.1993 6.9365 40.5512L8.38754 38.5414C8.6733 38.0729 8.81858 37.5322 8.80614 36.9835C8.79369 36.4349 8.62404 35.9013 8.31733 35.4463L7.2349 33.9162C4.16899 29.5514 6.28704 24.6717 10.8303 23.209L11.8308 22.8872C12.9367 22.5303 14.0045 21.6146 14.0981 20.4561L14.3204 17.6476C14.6832 13.0839 18.8461 10.4656 23.2227 11.7967L24.6415 12.2267C26.0077 12.7592 27.0784 12.3057 27.8215 11.4953L29.3545 9.53819V9.54112Z" fill="url(#paint2_radial_17_56)"/>
<path d="M29.3545 9.54112C32.6193 5.86671 37.0602 6.45181 39.9008 9.54112L41.6327 11.548C41.9286 11.8696 42.2941 12.1192 42.7012 12.2779C43.1084 12.4366 43.5464 12.5002 43.9819 12.4637L47.0624 11.548C51.2605 10.647 55.0753 13.7801 55.0753 18.6423V20.4766C55.1631 21.4742 56.0378 22.1529 56.9388 22.5946L59.721 23.756C63.7464 25.722 64.7528 30.3852 61.8215 34.3024L60.9877 35.3995C60.2417 36.4117 60.3938 37.7369 61.1369 38.7491L61.9707 39.9164C65.0044 43.6464 63.293 48.766 59.0101 50.5535L56.617 51.554C55.7131 51.9313 55.3591 52.5779 55.1923 53.5433L55.0256 56.6706C54.9234 57.5446 54.6484 58.3895 54.2165 59.1561C53.7846 59.9227 53.2045 60.5957 52.5099 61.1359C51.8153 61.6761 51.0202 62.0727 50.1708 62.3026C49.3215 62.5324 48.4349 62.591 47.5627 62.4748L43.9146 61.5006C43.0369 61.3777 41.9487 61.6674 41.3665 62.583L40.05 64.3822C36.7852 68.0625 32.3765 67.454 30.156 65.2979L27.7279 62.3578C27.0901 61.7434 26.2915 61.2168 25.329 61.5796L21.6605 62.583C18.6267 63.0131 15.0576 60.6815 14.4872 57.6741L14.063 53.321C13.9779 52.8745 13.7879 52.4546 13.5087 52.096C13.2294 51.7374 12.8689 51.4503 12.4569 51.2585L9.88246 50.3721C6.00912 48.567 4.71313 44.1993 6.9365 40.5512L8.38754 38.5414C8.6733 38.0729 8.81858 37.5322 8.80614 36.9835C8.79369 36.4349 8.62404 35.9013 8.31733 35.4463L7.2349 33.9162C4.16899 29.5514 6.28704 24.6717 10.8303 23.209L11.8308 22.8872C12.9367 22.5303 14.0045 21.6146 14.0981 20.4561L14.3204 17.6476C14.6832 13.0839 18.8461 10.4656 23.2227 11.7967L24.6415 12.2267C26.0077 12.7592 27.0784 12.3057 27.8215 11.4953L29.3545 9.53819V9.54112Z" fill="url(#paint3_radial_17_56)"/>
<path d="M29.3545 9.54112C32.6193 5.86671 37.0602 6.45181 39.9008 9.54112L41.6327 11.548C41.9286 11.8696 42.2941 12.1192 42.7012 12.2779C43.1084 12.4366 43.5464 12.5002 43.9819 12.4637L47.0624 11.548C51.2605 10.647 55.0753 13.7801 55.0753 18.6423V20.4766C55.1631 21.4742 56.0378 22.1529 56.9388 22.5946L59.721 23.756C63.7464 25.722 64.7528 30.3852 61.8215 34.3024L60.9877 35.3995C60.2417 36.4117 60.3938 37.7369 61.1369 38.7491L61.9707 39.9164C65.0044 43.6464 63.293 48.766 59.0101 50.5535L56.617 51.554C55.7131 51.9313 55.3591 52.5779 55.1923 53.5433L55.0256 56.6706C54.9234 57.5446 54.6484 58.3895 54.2165 59.1561C53.7846 59.9227 53.2045 60.5957 52.5099 61.1359C51.8153 61.6761 51.0202 62.0727 50.1708 62.3026C49.3215 62.5324 48.4349 62.591 47.5627 62.4748L43.9146 61.5006C43.0369 61.3777 41.9487 61.6674 41.3665 62.583L40.05 64.3822C36.7852 68.0625 32.3765 67.454 30.156 65.2979L27.7279 62.3578C27.0901 61.7434 26.2915 61.2168 25.329 61.5796L21.6605 62.583C18.6267 63.0131 15.0576 60.6815 14.4872 57.6741L14.063 53.321C13.9779 52.8745 13.7879 52.4546 13.5087 52.096C13.2294 51.7374 12.8689 51.4503 12.4569 51.2585L9.88246 50.3721C6.00912 48.567 4.71313 44.1993 6.9365 40.5512L8.38754 38.5414C8.6733 38.0729 8.81858 37.5322 8.80614 36.9835C8.79369 36.4349 8.62404 35.9013 8.31733 35.4463L7.2349 33.9162C4.16899 29.5514 6.28704 24.6717 10.8303 23.209L11.8308 22.8872C12.9367 22.5303 14.0045 21.6146 14.0981 20.4561L14.3204 17.6476C14.6832 13.0839 18.8461 10.4656 23.2227 11.7967L24.6415 12.2267C26.0077 12.7592 27.0784 12.3057 27.8215 11.4953L29.3545 9.53819V9.54112Z" fill="url(#paint4_radial_17_56)"/>
<path d="M29.3545 9.54112C32.6193 5.86671 37.0602 6.45181 39.9008 9.54112L41.6327 11.548C41.9286 11.8696 42.2941 12.1192 42.7012 12.2779C43.1084 12.4366 43.5464 12.5002 43.9819 12.4637L47.0624 11.548C51.2605 10.647 55.0753 13.7801 55.0753 18.6423V20.4766C55.1631 21.4742 56.0378 22.1529 56.9388 22.5946L59.721 23.756C63.7464 25.722 64.7528 30.3852 61.8215 34.3024L60.9877 35.3995C60.2417 36.4117 60.3938 37.7369 61.1369 38.7491L61.9707 39.9164C65.0044 43.6464 63.293 48.766 59.0101 50.5535L56.617 51.554C55.7131 51.9313 55.3591 52.5779 55.1923 53.5433L55.0256 56.6706C54.9234 57.5446 54.6484 58.3895 54.2165 59.1561C53.7846 59.9227 53.2045 60.5957 52.5099 61.1359C51.8153 61.6761 51.0202 62.0727 50.1708 62.3026C49.3215 62.5324 48.4349 62.591 47.5627 62.4748L43.9146 61.5006C43.0369 61.3777 41.9487 61.6674 41.3665 62.583L40.05 64.3822C36.7852 68.0625 32.3765 67.454 30.156 65.2979L27.7279 62.3578C27.0901 61.7434 26.2915 61.2168 25.329 61.5796L21.6605 62.583C18.6267 63.0131 15.0576 60.6815 14.4872 57.6741L14.063 53.321C13.9779 52.8745 13.7879 52.4546 13.5087 52.096C13.2294 51.7374 12.8689 51.4503 12.4569 51.2585L9.88246 50.3721C6.00912 48.567 4.71313 44.1993 6.9365 40.5512L8.38754 38.5414C8.6733 38.0729 8.81858 37.5322 8.80614 36.9835C8.79369 36.4349 8.62404 35.9013 8.31733 35.4463L7.2349 33.9162C4.16899 29.5514 6.28704 24.6717 10.8303 23.209L11.8308 22.8872C12.9367 22.5303 14.0045 21.6146 14.0981 20.4561L14.3204 17.6476C14.6832 13.0839 18.8461 10.4656 23.2227 11.7967L24.6415 12.2267C26.0077 12.7592 27.0784 12.3057 27.8215 11.4953L29.3545 9.53819V9.54112Z" fill="url(#paint5_radial_17_56)"/>
<path d="M29.3545 9.54112C32.6193 5.86671 37.0602 6.45181 39.9008 9.54112L41.6327 11.548C41.9286 11.8696 42.2941 12.1192 42.7012 12.2779C43.1084 12.4366 43.5464 12.5002 43.9819 12.4637L47.0624 11.548C51.2605 10.647 55.0753 13.7801 55.0753 18.6423V20.4766C55.1631 21.4742 56.0378 22.1529 56.9388 22.5946L59.721 23.756C63.7464 25.722 64.7528 30.3852 61.8215 34.3024L60.9877 35.3995C60.2417 36.4117 60.3938 37.7369 61.1369 38.7491L61.9707 39.9164C65.0044 43.6464 63.293 48.766 59.0101 50.5535L56.617 51.554C55.7131 51.9313 55.3591 52.5779 55.1923 53.5433L55.0256 56.6706C54.9234 57.5446 54.6484 58.3895 54.2165 59.1561C53.7846 59.9227 53.2045 60.5957 52.5099 61.1359C51.8153 61.6761 51.0202 62.0727 50.1708 62.3026C49.3215 62.5324 48.4349 62.591 47.5627 62.4748L43.9146 61.5006C43.0369 61.3777 41.9487 61.6674 41.3665 62.583L40.05 64.3822C36.7852 68.0625 32.3765 67.454 30.156 65.2979L27.7279 62.3578C27.0901 61.7434 26.2915 61.2168 25.329 61.5796L21.6605 62.583C18.6267 63.0131 15.0576 60.6815 14.4872 57.6741L14.063 53.321C13.9779 52.8745 13.7879 52.4546 13.5087 52.096C13.2294 51.7374 12.8689 51.4503 12.4569 51.2585L9.88246 50.3721C6.00912 48.567 4.71313 44.1993 6.9365 40.5512L8.38754 38.5414C8.6733 38.0729 8.81858 37.5322 8.80614 36.9835C8.79369 36.4349 8.62404 35.9013 8.31733 35.4463L7.2349 33.9162C4.16899 29.5514 6.28704 24.6717 10.8303 23.209L11.8308 22.8872C12.9367 22.5303 14.0045 21.6146 14.0981 20.4561L14.3204 17.6476C14.6832 13.0839 18.8461 10.4656 23.2227 11.7967L24.6415 12.2267C26.0077 12.7592 27.0784 12.3057 27.8215 11.4953L29.3545 9.53819V9.54112Z" fill="url(#paint6_radial_17_56)"/>
<path d="M29.3545 9.54112C32.6193 5.86671 37.0602 6.45181 39.9008 9.54112L41.6327 11.548C41.9286 11.8696 42.2941 12.1192 42.7012 12.2779C43.1084 12.4366 43.5464 12.5002 43.9819 12.4637L47.0624 11.548C51.2605 10.647 55.0753 13.7801 55.0753 18.6423V20.4766C55.1631 21.4742 56.0378 22.1529 56.9388 22.5946L59.721 23.756C63.7464 25.722 64.7528 30.3852 61.8215 34.3024L60.9877 35.3995C60.2417 36.4117 60.3938 37.7369 61.1369 38.7491L61.9707 39.9164C65.0044 43.6464 63.293 48.766 59.0101 50.5535L56.617 51.554C55.7131 51.9313 55.3591 52.5779 55.1923 53.5433L55.0256 56.6706C54.9234 57.5446 54.6484 58.3895 54.2165 59.1561C53.7846 59.9227 53.2045 60.5957 52.5099 61.1359C51.8153 61.6761 51.0202 62.0727 50.1708 62.3026C49.3215 62.5324 48.4349 62.591 47.5627 62.4748L43.9146 61.5006C43.0369 61.3777 41.9487 61.6674 41.3665 62.583L40.05 64.3822C36.7852 68.0625 32.3765 67.454 30.156 65.2979L27.7279 62.3578C27.0901 61.7434 26.2915 61.2168 25.329 61.5796L21.6605 62.583C18.6267 63.0131 15.0576 60.6815 14.4872 57.6741L14.063 53.321C13.9779 52.8745 13.7879 52.4546 13.5087 52.096C13.2294 51.7374 12.8689 51.4503 12.4569 51.2585L9.88246 50.3721C6.00912 48.567 4.71313 44.1993 6.9365 40.5512L8.38754 38.5414C8.6733 38.0729 8.81858 37.5322 8.80614 36.9835C8.79369 36.4349 8.62404 35.9013 8.31733 35.4463L7.2349 33.9162C4.16899 29.5514 6.28704 24.6717 10.8303 23.209L11.8308 22.8872C12.9367 22.5303 14.0045 21.6146 14.0981 20.4561L14.3204 17.6476C14.6832 13.0839 18.8461 10.4656 23.2227 11.7967L24.6415 12.2267C26.0077 12.7592 27.0784 12.3057 27.8215 11.4953L29.3545 9.53819V9.54112Z" fill="url(#paint7_radial_17_56)"/>
<path d="M29.3545 9.54112C32.6193 5.86671 37.0602 6.45181 39.9008 9.54112L41.6327 11.548C41.9286 11.8696 42.2941 12.1192 42.7012 12.2779C43.1084 12.4366 43.5464 12.5002 43.9819 12.4637L47.0624 11.548C51.2605 10.647 55.0753 13.7801 55.0753 18.6423V20.4766C55.1631 21.4742 56.0378 22.1529 56.9388 22.5946L59.721 23.756C63.7464 25.722 64.7528 30.3852 61.8215 34.3024L60.9877 35.3995C60.2417 36.4117 60.3938 37.7369 61.1369 38.7491L61.9707 39.9164C65.0044 43.6464 63.293 48.766 59.0101 50.5535L56.617 51.554C55.7131 51.9313 55.3591 52.5779 55.1923 53.5433L55.0256 56.6706C54.9234 57.5446 54.6484 58.3895 54.2165 59.1561C53.7846 59.9227 53.2045 60.5957 52.5099 61.1359C51.8153 61.6761 51.0202 62.0727 50.1708 62.3026C49.3215 62.5324 48.4349 62.591 47.5627 62.4748L43.9146 61.5006C43.0369 61.3777 41.9487 61.6674 41.3665 62.583L40.05 64.3822C36.7852 68.0625 32.3765 67.454 30.156 65.2979L27.7279 62.3578C27.0901 61.7434 26.2915 61.2168 25.329 61.5796L21.6605 62.583C18.6267 63.0131 15.0576 60.6815 14.4872 57.6741L14.063 53.321C13.9779 52.8745 13.7879 52.4546 13.5087 52.096C13.2294 51.7374 12.8689 51.4503 12.4569 51.2585L9.88246 50.3721C6.00912 48.567 4.71313 44.1993 6.9365 40.5512L8.38754 38.5414C8.6733 38.0729 8.81858 37.5322 8.80614 36.9835C8.79369 36.4349 8.62404 35.9013 8.31733 35.4463L7.2349 33.9162C4.16899 29.5514 6.28704 24.6717 10.8303 23.209L11.8308 22.8872C12.9367 22.5303 14.0045 21.6146 14.0981 20.4561L14.3204 17.6476C14.6832 13.0839 18.8461 10.4656 23.2227 11.7967L24.6415 12.2267C26.0077 12.7592 27.0784 12.3057 27.8215 11.4953L29.3545 9.53819V9.54112Z" fill="url(#paint8_radial_17_56)"/>
<path d="M29.3545 9.54112C32.6193 5.86671 37.0602 6.45181 39.9008 9.54112L41.6327 11.548C41.9286 11.8696 42.2941 12.1192 42.7012 12.2779C43.1084 12.4366 43.5464 12.5002 43.9819 12.4637L47.0624 11.548C51.2605 10.647 55.0753 13.7801 55.0753 18.6423V20.4766C55.1631 21.4742 56.0378 22.1529 56.9388 22.5946L59.721 23.756C63.7464 25.722 64.7528 30.3852 61.8215 34.3024L60.9877 35.3995C60.2417 36.4117 60.3938 37.7369 61.1369 38.7491L61.9707 39.9164C65.0044 43.6464 63.293 48.766 59.0101 50.5535L56.617 51.554C55.7131 51.9313 55.3591 52.5779 55.1923 53.5433L55.0256 56.6706C54.9234 57.5446 54.6484 58.3895 54.2165 59.1561C53.7846 59.9227 53.2045 60.5957 52.5099 61.1359C51.8153 61.6761 51.0202 62.0727 50.1708 62.3026C49.3215 62.5324 48.4349 62.591 47.5627 62.4748L43.9146 61.5006C43.0369 61.3777 41.9487 61.6674 41.3665 62.583L40.05 64.3822C36.7852 68.0625 32.3765 67.454 30.156 65.2979L27.7279 62.3578C27.0901 61.7434 26.2915 61.2168 25.329 61.5796L21.6605 62.583C18.6267 63.0131 15.0576 60.6815 14.4872 57.6741L14.063 53.321C13.9779 52.8745 13.7879 52.4546 13.5087 52.096C13.2294 51.7374 12.8689 51.4503 12.4569 51.2585L9.88246 50.3721C6.00912 48.567 4.71313 44.1993 6.9365 40.5512L8.38754 38.5414C8.6733 38.0729 8.81858 37.5322 8.80614 36.9835C8.79369 36.4349 8.62404 35.9013 8.31733 35.4463L7.2349 33.9162C4.16899 29.5514 6.28704 24.6717 10.8303 23.209L11.8308 22.8872C12.9367 22.5303 14.0045 21.6146 14.0981 20.4561L14.3204 17.6476C14.6832 13.0839 18.8461 10.4656 23.2227 11.7967L24.6415 12.2267C26.0077 12.7592 27.0784 12.3057 27.8215 11.4953L29.3545 9.53819V9.54112Z" fill="url(#paint9_radial_17_56)"/>
<g filter="url(#filter0_i_17_56)">
<path d="M34.6527 59.8682C40.7279 59.8682 46.5543 57.4548 50.8501 53.159C55.1459 48.8632 57.5593 43.0368 57.5593 36.9616C57.5593 30.8864 55.1459 25.0601 50.8501 20.7643C46.5543 16.4685 40.7279 14.0551 34.6527 14.0551C28.5775 14.0551 22.7512 16.4685 18.4554 20.7643C14.1596 25.0601 11.7462 30.8864 11.7462 36.9616C11.7462 43.0368 14.1596 48.8632 18.4554 53.159C22.7512 57.4548 28.5775 59.8682 34.6527 59.8682V59.8682Z" fill="url(#paint10_radial_17_56)"/>
<path d="M34.6527 59.8682C40.7279 59.8682 46.5543 57.4548 50.8501 53.159C55.1459 48.8632 57.5593 43.0368 57.5593 36.9616C57.5593 30.8864 55.1459 25.0601 50.8501 20.7643C46.5543 16.4685 40.7279 14.0551 34.6527 14.0551C28.5775 14.0551 22.7512 16.4685 18.4554 20.7643C14.1596 25.0601 11.7462 30.8864 11.7462 36.9616C11.7462 43.0368 14.1596 48.8632 18.4554 53.159C22.7512 57.4548 28.5775 59.8682 34.6527 59.8682V59.8682Z" fill="url(#paint11_radial_17_56)"/>
<path d="M34.6527 59.8682C40.7279 59.8682 46.5543 57.4548 50.8501 53.159C55.1459 48.8632 57.5593 43.0368 57.5593 36.9616C57.5593 30.8864 55.1459 25.0601 50.8501 20.7643C46.5543 16.4685 40.7279 14.0551 34.6527 14.0551C28.5775 14.0551 22.7512 16.4685 18.4554 20.7643C14.1596 25.0601 11.7462 30.8864 11.7462 36.9616C11.7462 43.0368 14.1596 48.8632 18.4554 53.159C22.7512 57.4548 28.5775 59.8682 34.6527 59.8682V59.8682Z" fill="url(#paint12_radial_17_56)"/>
</g>
<path d="M35.0156 61.5855C36.5677 61.5855 38.1046 61.2798 39.5385 60.6858C40.9725 60.0918 42.2754 59.2213 43.3729 58.1238C44.4704 57.0263 45.3409 55.7234 45.9349 54.2894C46.5288 52.8555 46.8345 51.3186 46.8345 49.7665C46.8345 48.2144 46.5288 46.6775 45.9349 45.2436C45.3409 43.8097 44.4704 42.5068 43.3729 41.4093C42.2754 40.3118 40.9725 39.4412 39.5385 38.8472C38.1046 38.2533 36.5677 37.9476 35.0156 37.9476C31.881 37.9476 28.8748 39.1928 26.6583 41.4093C24.4419 43.6257 23.1967 46.6319 23.1967 49.7665C23.1967 52.9011 24.4419 55.9073 26.6583 58.1238C28.8748 60.3403 31.881 61.5855 35.0156 61.5855V61.5855Z" fill="url(#paint13_radial_17_56)"/>
<path d="M35.0156 61.5855C36.5677 61.5855 38.1046 61.2798 39.5385 60.6858C40.9725 60.0918 42.2754 59.2213 43.3729 58.1238C44.4704 57.0263 45.3409 55.7234 45.9349 54.2894C46.5288 52.8555 46.8345 51.3186 46.8345 49.7665C46.8345 48.2144 46.5288 46.6775 45.9349 45.2436C45.3409 43.8097 44.4704 42.5068 43.3729 41.4093C42.2754 40.3118 40.9725 39.4412 39.5385 38.8472C38.1046 38.2533 36.5677 37.9476 35.0156 37.9476C31.881 37.9476 28.8748 39.1928 26.6583 41.4093C24.4419 43.6257 23.1967 46.6319 23.1967 49.7665C23.1967 52.9011 24.4419 55.9073 26.6583 58.1238C28.8748 60.3403 31.881 61.5855 35.0156 61.5855V61.5855Z" fill="url(#paint14_radial_17_56)"/>
<g filter="url(#filter1_i_17_56)">
<path d="M78.8392 37.9183C68.4537 27.7961 51.837 27.9717 41.7148 38.3571C39.104 41.0226 37.0931 44.2154 35.817 47.7216C35.7758 47.8322 35.7102 47.9321 35.6251 48.0138C35.5399 48.0955 35.4374 48.1569 35.3252 48.1934C35.213 48.23 35.0939 48.2407 34.977 48.2249C34.86 48.209 34.7482 48.167 34.6498 48.1019C33.7391 47.4965 32.7744 46.9765 31.7682 46.5485C28.89 45.2277 25.7259 44.6517 22.5669 44.8735C19.4079 45.0953 16.3554 46.1077 13.6899 47.8177C11.0245 49.5276 8.83176 51.8802 7.31328 54.6592C5.79479 57.4382 4.99932 60.5543 5 63.721C5 68.1678 6.55051 72.2635 9.12493 75.5107C10.8963 77.8424 13.1838 79.732 15.8079 81.0314C18.432 82.3307 21.3215 83.0046 24.2497 83H61.374C69.6239 83 76.9083 78.9335 81.3551 72.7023C89.3124 62.2876 88.4347 47.3091 78.8392 37.9183V37.9183Z" fill="#E0D3FF"/>
</g>
<g filter="url(#filter2_ii_17_56)">
<path d="M78.8392 37.9183C68.4537 27.7961 51.837 27.9717 41.7148 38.3571C39.104 41.0226 37.0931 44.2154 35.817 47.7216C35.7758 47.8322 35.7102 47.9321 35.6251 48.0138C35.5399 48.0955 35.4374 48.1569 35.3252 48.1934C35.213 48.23 35.0939 48.2407 34.977 48.2249C34.86 48.209 34.7482 48.167 34.6498 48.1019C33.7391 47.4965 32.7744 46.9765 31.7682 46.5485C28.89 45.2277 25.7259 44.6517 22.5669 44.8735C19.4079 45.0953 16.3554 46.1077 13.6899 47.8177C11.0245 49.5276 8.83176 51.8802 7.31328 54.6592C5.79479 57.4382 4.99932 60.5543 5 63.721C5 68.1678 6.55051 72.2635 9.12493 75.5107C10.8963 77.8424 13.1838 79.732 15.8079 81.0314C18.432 82.3307 21.3215 83.0046 24.2497 83H61.374C69.6239 83 76.9083 78.9335 81.3551 72.7023C89.3124 62.2876 88.4347 47.3091 78.8392 37.9183V37.9183Z" fill="#E0D3FF"/>
<path d="M78.8392 37.9183C68.4537 27.7961 51.837 27.9717 41.7148 38.3571C39.104 41.0226 37.0931 44.2154 35.817 47.7216C35.7758 47.8322 35.7102 47.9321 35.6251 48.0138C35.5399 48.0955 35.4374 48.1569 35.3252 48.1934C35.213 48.23 35.0939 48.2407 34.977 48.2249C34.86 48.209 34.7482 48.167 34.6498 48.1019C33.7391 47.4965 32.7744 46.9765 31.7682 46.5485C28.89 45.2277 25.7259 44.6517 22.5669 44.8735C19.4079 45.0953 16.3554 46.1077 13.6899 47.8177C11.0245 49.5276 8.83176 51.8802 7.31328 54.6592C5.79479 57.4382 4.99932 60.5543 5 63.721C5 68.1678 6.55051 72.2635 9.12493 75.5107C10.8963 77.8424 13.1838 79.732 15.8079 81.0314C18.432 82.3307 21.3215 83.0046 24.2497 83H61.374C69.6239 83 76.9083 78.9335 81.3551 72.7023C89.3124 62.2876 88.4347 47.3091 78.8392 37.9183V37.9183Z" fill="url(#paint15_radial_17_56)"/>
<path d="M78.8392 37.9183C68.4537 27.7961 51.837 27.9717 41.7148 38.3571C39.104 41.0226 37.0931 44.2154 35.817 47.7216C35.7758 47.8322 35.7102 47.9321 35.6251 48.0138C35.5399 48.0955 35.4374 48.1569 35.3252 48.1934C35.213 48.23 35.0939 48.2407 34.977 48.2249C34.86 48.209 34.7482 48.167 34.6498 48.1019C33.7391 47.4965 32.7744 46.9765 31.7682 46.5485C28.89 45.2277 25.7259 44.6517 22.5669 44.8735C19.4079 45.0953 16.3554 46.1077 13.6899 47.8177C11.0245 49.5276 8.83176 51.8802 7.31328 54.6592C5.79479 57.4382 4.99932 60.5543 5 63.721C5 68.1678 6.55051 72.2635 9.12493 75.5107C10.8963 77.8424 13.1838 79.732 15.8079 81.0314C18.432 82.3307 21.3215 83.0046 24.2497 83H61.374C69.6239 83 76.9083 78.9335 81.3551 72.7023C89.3124 62.2876 88.4347 47.3091 78.8392 37.9183V37.9183Z" fill="url(#paint16_radial_17_56)"/>
<path d="M78.8392 37.9183C68.4537 27.7961 51.837 27.9717 41.7148 38.3571C39.104 41.0226 37.0931 44.2154 35.817 47.7216C35.7758 47.8322 35.7102 47.9321 35.6251 48.0138C35.5399 48.0955 35.4374 48.1569 35.3252 48.1934C35.213 48.23 35.0939 48.2407 34.977 48.2249C34.86 48.209 34.7482 48.167 34.6498 48.1019C33.7391 47.4965 32.7744 46.9765 31.7682 46.5485C28.89 45.2277 25.7259 44.6517 22.5669 44.8735C19.4079 45.0953 16.3554 46.1077 13.6899 47.8177C11.0245 49.5276 8.83176 51.8802 7.31328 54.6592C5.79479 57.4382 4.99932 60.5543 5 63.721C5 68.1678 6.55051 72.2635 9.12493 75.5107C10.8963 77.8424 13.1838 79.732 15.8079 81.0314C18.432 82.3307 21.3215 83.0046 24.2497 83H61.374C69.6239 83 76.9083 78.9335 81.3551 72.7023C89.3124 62.2876 88.4347 47.3091 78.8392 37.9183V37.9183Z" fill="url(#paint17_radial_17_56)"/>
<path d="M78.8392 37.9183C68.4537 27.7961 51.837 27.9717 41.7148 38.3571C39.104 41.0226 37.0931 44.2154 35.817 47.7216C35.7758 47.8322 35.7102 47.9321 35.6251 48.0138C35.5399 48.0955 35.4374 48.1569 35.3252 48.1934C35.213 48.23 35.0939 48.2407 34.977 48.2249C34.86 48.209 34.7482 48.167 34.6498 48.1019C33.7391 47.4965 32.7744 46.9765 31.7682 46.5485C28.89 45.2277 25.7259 44.6517 22.5669 44.8735C19.4079 45.0953 16.3554 46.1077 13.6899 47.8177C11.0245 49.5276 8.83176 51.8802 7.31328 54.6592C5.79479 57.4382 4.99932 60.5543 5 63.721C5 68.1678 6.55051 72.2635 9.12493 75.5107C10.8963 77.8424 13.1838 79.732 15.8079 81.0314C18.432 82.3307 21.3215 83.0046 24.2497 83H61.374C69.6239 83 76.9083 78.9335 81.3551 72.7023C89.3124 62.2876 88.4347 47.3091 78.8392 37.9183V37.9183Z" fill="url(#paint18_radial_17_56)"/>
</g>
<defs>
<filter id="filter0_i_17_56" x="11.4462" y="14.0551" width="46.113" height="46.113" filterUnits="userSpaceOnUse" color-interpolation-filters="sRGB">
<feFlood flood-opacity="0" result="BackgroundImageFix"/>
<feBlend mode="normal" in="SourceGraphic" in2="BackgroundImageFix" result="shape"/>
<feColorMatrix in="SourceAlpha" type="matrix" values="0 0 0 0 0 0 0 0 0 0 0 0 0 0 0 0 0 0 127 0" result="hardAlpha"/>
<feOffset dx="-0.3" dy="0.3"/>
<feGaussianBlur stdDeviation="0.15"/>
<feComposite in2="hardAlpha" operator="arithmetic" k2="-1" k3="1"/>
<feColorMatrix type="matrix" values="0 0 0 0 0.921569 0 0 0 0 0.47451 0 0 0 0 0.133333 0 0 0 1 0"/>
<feBlend mode="normal" in2="shape" result="effect1_innerShadow_17_56"/>
</filter>
<filter id="filter1_i_17_56" x="5" y="30.4456" width="81.741" height="52.5544" filterUnits="userSpaceOnUse" color-interpolation-filters="sRGB">
<feFlood flood-opacity="0" result="BackgroundImageFix"/>
<feBlend mode="normal" in="SourceGraphic" in2="BackgroundImageFix" result="shape"/>
<feColorMatrix in="SourceAlpha" type="matrix" values="0 0 0 0 0 0 0 0 0 0 0 0 0 0 0 0 0 0 127 0" result="hardAlpha"/>
<feOffset/>
<feGaussianBlur stdDeviation="2"/>
<feComposite in2="hardAlpha" operator="arithmetic" k2="-1" k3="1"/>
<feColorMatrix type="matrix" values="0 0 0 0 0.701961 0 0 0 0 0.698039 0 0 0 0 0.992157 0 0 0 1 0"/>
<feBlend mode="normal" in2="shape" result="effect1_innerShadow_17_56"/>
</filter>
<filter id="filter2_ii_17_56" x="5" y="30.4456" width="81.741" height="52.5544" filterUnits="userSpaceOnUse" color-interpolation-filters="sRGB">
<feFlood flood-opacity="0" result="BackgroundImageFix"/>
<feBlend mode="normal" in="SourceGraphic" in2="BackgroundImageFix" result="shape"/>
<feColorMatrix in="SourceAlpha" type="matrix" values="0 0 0 0 0 0 0 0 0 0 0 0 0 0 0 0 0 0 127 0" result="hardAlpha"/>
<feOffset/>
<feGaussianBlur stdDeviation="3"/>
<feComposite in2="hardAlpha" operator="arithmetic" k2="-1" k3="1"/>
<feColorMatrix type="matrix" values="0 0 0 0 0.701961 0 0 0 0 0.698039 0 0 0 0 0.992157 0 0 0 1 0"/>
<feBlend mode="normal" in2="shape" result="effect1_innerShadow_17_56"/>
<feColorMatrix in="SourceAlpha" type="matrix" values="0 0 0 0 0 0 0 0 0 0 0 0 0 0 0 0 0 0 127 0" result="hardAlpha"/>
<feOffset/>
<feGaussianBlur stdDeviation="1"/>
<feComposite in2="hardAlpha" operator="arithmetic" k2="-1" k3="1"/>
<feColorMatrix type="matrix" values="0 0 0 0 0.701961 0 0 0 0 0.698039 0 0 0 0 0.992157 0 0 0 1 0"/>
<feBlend mode="normal" in2="effect1_innerShadow_17_56" result="effect2_innerShadow_17_56"/>
</filter>
<linearGradient id="paint0_linear_17_56" x1="52.4424" y1="17.0801" x2="19.7121" y2="58.8384" gradientUnits="userSpaceOnUse">
<stop stop-color="#FC8B23"/>
<stop offset="1" stop-color="#E67639"/>
</linearGradient>
<radialGradient id="paint1_radial_17_56" cx="0" cy="0" r="1" gradientUnits="userSpaceOnUse" gradientTransform="translate(40.1641 9.76931) rotate(138.155) scale(8.05684 7.10863)">
<stop offset="0.3" stop-color="#FFA13A"/>
<stop offset="1" stop-color="#FFA13A" stop-opacity="0"/>
</radialGradient>
<radialGradient id="paint2_radial_17_56" cx="0" cy="0" r="1" gradientUnits="userSpaceOnUse" gradientTransform="translate(19.2001 7.22414) rotate(67.8105) scale(12.8085 11.3011)">
<stop offset="0.3" stop-color="#FF942A"/>
<stop offset="1" stop-color="#FF942A" stop-opacity="0"/>
</radialGradient>
<radialGradient id="paint3_radial_17_56" cx="0" cy="0" r="1" gradientUnits="userSpaceOnUse" gradientTransform="translate(53.5986 19.1732) rotate(-164.745) scale(5.10693 7.07118)">
<stop offset="0.3" stop-color="#FFA13D"/>
<stop offset="1" stop-color="#FFA13D" stop-opacity="0"/>
</radialGradient>
<radialGradient id="paint4_radial_17_56" cx="0" cy="0" r="1" gradientUnits="userSpaceOnUse" gradientTransform="translate(63.8974 26.6082) rotate(154.195) scale(9.05481 6.68762)">
<stop offset="0.3" stop-color="#FFA13D"/>
<stop offset="1" stop-color="#FFA13D" stop-opacity="0"/>
</radialGradient>
<radialGradient id="paint5_radial_17_56" cx="0" cy="0" r="1" gradientUnits="userSpaceOnUse" gradientTransform="translate(65.8699 41.9239) rotate(-173.379) scale(10.1005 5.69196)">
<stop offset="0.3" stop-color="#FFA13D"/>
<stop offset="1" stop-color="#FFA13D" stop-opacity="0"/>
</radialGradient>
<radialGradient id="paint6_radial_17_56" cx="0" cy="0" r="1" gradientUnits="userSpaceOnUse" gradientTransform="translate(56.8242 53.6633) rotate(-43.964) scale(9.16194 8.82644)">
<stop stop-color="#E0762A"/>
<stop offset="1" stop-color="#E0762A" stop-opacity="0"/>
</radialGradient>
<radialGradient id="paint7_radial_17_56" cx="0" cy="0" r="1" gradientUnits="userSpaceOnUse" gradientTransform="translate(14.3614 51.513) rotate(-127.747) scale(7.024 6.7668)">
<stop stop-color="#E0762A"/>
<stop offset="1" stop-color="#E0762A" stop-opacity="0"/>
</radialGradient>
<radialGradient id="paint8_radial_17_56" cx="0" cy="0" r="1" gradientUnits="userSpaceOnUse" gradientTransform="translate(4.77749 27.7727) rotate(25.278) scale(7.1328 8.62103)">
<stop stop-color="#F0851D"/>
<stop offset="1" stop-color="#F0851D" stop-opacity="0"/>
</radialGradient>
<radialGradient id="paint9_radial_17_56" cx="0" cy="0" r="1" gradientUnits="userSpaceOnUse" gradientTransform="translate(47.355 63.8381) rotate(-142.487) scale(8.3161 7.84555)">
<stop offset="0.337" stop-color="#E3745B"/>
<stop offset="1" stop-color="#E3745B" stop-opacity="0"/>
</radialGradient>
<radialGradient id="paint10_radial_17_56" cx="0" cy="0" r="1" gradientUnits="userSpaceOnUse" gradientTransform="translate(47.6507 23.6917) rotate(117.739) scale(40.8743 50.4757)">
<stop offset="0.172" stop-color="#FFD13D"/>
<stop offset="1" stop-color="#D89A29"/>
</radialGradient>
<radialGradient id="paint11_radial_17_56" cx="0" cy="0" r="1" gradientUnits="userSpaceOnUse" gradientTransform="translate(26.5095 50.1521) rotate(-140.631) scale(14.2589 12.0386)">
<stop offset="0.341" stop-color="#DCA225"/>
<stop offset="1" stop-color="#DCA225" stop-opacity="0"/>
</radialGradient>
<radialGradient id="paint12_radial_17_56" cx="0" cy="0" r="1" gradientUnits="userSpaceOnUse" gradientTransform="translate(53.3612 33.0503) rotate(168.299) scale(48.7807 41.1849)">
<stop offset="0.62" stop-color="#DCA225" stop-opacity="0"/>
<stop offset="1" stop-color="#DCA225"/>
</radialGradient>
<radialGradient id="paint13_radial_17_56" cx="0" cy="0" r="1" gradientUnits="userSpaceOnUse" gradientTransform="translate(34.2078 47.7493) rotate(-110.468) scale(10.4603 10.1597)">
<stop offset="0.307" stop-color="#CECDFF"/>
<stop offset="1" stop-color="#B7B6FA"/>
</radialGradient>
<radialGradient id="paint14_radial_17_56" cx="0" cy="0" r="1" gradientUnits="userSpaceOnUse" gradientTransform="translate(38.6454 45.1211) rotate(-148.811) scale(4.24095 14.1026)">
<stop offset="0.401" stop-color="#B8B7FF"/>
<stop offset="1" stop-color="#B8B7FF" stop-opacity="0"/>
</radialGradient>
<radialGradient id="paint15_radial_17_56" cx="0" cy="0" r="1" gradientUnits="userSpaceOnUse" gradientTransform="translate(47.1759 63.4862) rotate(-106.955) scale(38.0079 21.3546)">
<stop stop-color="#D6CCFF"/>
<stop offset="1" stop-color="#D6CCFF" stop-opacity="0"/>
</radialGradient>
<radialGradient id="paint16_radial_17_56" cx="0" cy="0" r="1" gradientUnits="userSpaceOnUse" gradientTransform="translate(81.9811 45.5304) rotate(147.006) scale(35.417 39.5613)">
<stop offset="0.19" stop-color="#F2F0FF"/>
<stop offset="1" stop-color="#F2F0FF" stop-opacity="0"/>
</radialGradient>
<radialGradient id="paint17_radial_17_56" cx="0" cy="0" r="1" gradientUnits="userSpaceOnUse" gradientTransform="translate(25.6706 55.0617) rotate(147.319) scale(27.9179 34.0201)">
<stop stop-color="#F2F0FF"/>
<stop offset="0.696" stop-color="#F2F0FF" stop-opacity="0"/>
</radialGradient>
<radialGradient id="paint18_radial_17_56" cx="0" cy="0" r="1" gradientUnits="userSpaceOnUse" gradientTransform="translate(32.1017 43.3129) rotate(71.906) scale(23.5547 8.78133)">
<stop stop-color="#F2F0FF"/>
<stop offset="1" stop-color="#F2F0FF" stop-opacity="0"/>
</radialGradient>
</defs>
</svg>
