<svg width="90" height="90" viewBox="0 0 90 90" fill="none" xmlns="http://www.w3.org/2000/svg">
<path d="M31.7845 45V31.7857H34.4273C37.2298 31.7822 39.9165 30.6673 41.8982 28.6855C43.8798 26.7038 44.9947 24.0169 44.9982 21.2143V13.2857H37.07C34.3638 13.2901 31.7635 14.3381 29.8104 16.2113C28.4419 13.7265 26.4322 11.654 23.9906 10.2098C21.549 8.76557 18.7649 8.00248 15.9282 8H8V15.9286C8.0049 20.1326 9.67704 24.1631 12.6496 27.1358C15.6222 30.1086 19.6525 31.7808 23.8564 31.7857H26.4991V45H8V50.2857H44.9982V45H31.7845ZM37.07 18.5714H39.7127V21.2143C39.7113 22.6157 39.154 23.9593 38.1631 24.9503C37.1722 25.9412 35.8286 26.4986 34.4273 26.5H31.7845V23.8571C31.7859 22.4557 32.3432 21.1121 33.3342 20.1211C34.3251 19.1302 35.6686 18.5728 37.07 18.5714V18.5714ZM23.8564 26.5C21.0539 26.4965 18.3671 25.3816 16.3855 23.3998C14.4038 21.4181 13.289 18.7312 13.2855 15.9286V13.2857H15.9282C18.7307 13.2892 21.4174 14.4041 23.3991 16.3859C25.3808 18.3676 26.4956 21.0545 26.4991 23.8571V26.5H23.8564ZM8 58.2142H44.9982V63.5H8V58.2142ZM8 71.4285H44.9982V76.7142H8V71.4285ZM68.7827 81.9999C66.0117 82.0085 63.3086 81.1432 61.0576 79.5271C58.8067 77.911 57.1224 75.6264 56.2444 72.9981C55.3664 70.3698 55.3393 67.5315 56.1669 64.8869C56.9946 62.2423 58.6348 59.9259 60.8545 58.2671V42.3571C60.8545 40.2543 61.6898 38.2377 63.1766 36.7508C64.6635 35.2639 66.68 34.4285 68.7827 34.4285C70.8854 34.4285 72.902 35.2639 74.3888 36.7508C75.8756 38.2377 76.7109 40.2543 76.7109 42.3571V58.2671C78.9306 59.9259 80.5709 62.2423 81.3985 64.8869C82.2262 67.5315 82.199 70.3698 81.321 72.9981C80.443 75.6264 78.7588 77.911 76.5078 79.5271C74.2568 81.1432 71.5537 82.0085 68.7827 81.9999V81.9999ZM68.7827 39.7143C68.082 39.715 67.4103 39.9936 66.9148 40.4891C66.4193 40.9846 66.1407 41.6564 66.14 42.3571V61.2007L64.8266 61.9671C63.6211 62.6513 62.6184 63.6428 61.9207 64.8405C61.223 66.0382 60.8551 67.3995 60.8545 68.7857C60.8545 70.8884 61.6898 72.9051 63.1766 74.392C64.6635 75.8789 66.68 76.7142 68.7827 76.7142C70.8854 76.7142 72.902 75.8789 74.3888 74.392C75.8756 72.9051 76.7109 70.8884 76.7109 68.7857C76.7108 67.3991 76.3431 66.0372 75.6454 64.839C74.9476 63.6408 73.9447 62.6489 72.7389 61.9645L71.4254 61.2007V42.3571C71.4247 41.6564 71.1461 40.9846 70.6506 40.4891C70.1552 39.9936 69.4834 39.715 68.7827 39.7143Z" fill="white" fill-opacity="0.67"/>
</svg>
