<svg width="90" height="90" viewBox="0 0 90 90" fill="none" xmlns="http://www.w3.org/2000/svg">
<path d="M25.4575 67.5536C23.583 67.5536 21.7853 66.8174 20.4598 65.5069C19.1343 64.1964 18.3897 62.4191 18.3897 60.5658C18.3897 58.7126 19.1343 56.9352 20.4598 55.6247C21.7853 54.3143 23.583 53.5781 25.4575 53.5781H32.5253C32.5253 45.8217 38.851 39.6026 46.6609 39.6026C50.4099 39.6026 54.0054 41.075 56.6563 43.6959C59.3073 46.3168 60.7966 49.8715 60.7966 53.5781V60.5658H71.3983C72.3355 60.5658 73.2344 60.9339 73.8971 61.5891C74.5599 62.2444 74.9322 63.1331 74.9322 64.0597C74.9322 65.9464 73.3419 67.5536 71.3983 67.5536H64.3305C64.3305 67.5536 60.7966 67.5536 60.7966 71.0474C60.7966 74.5413 64.3305 74.5413 64.3305 74.5413H71.3983C74.21 74.5413 76.9066 73.437 78.8948 71.4713C80.883 69.5056 82 66.8396 82 64.0597C82 58.2599 77.2646 53.5781 71.3983 53.5781C70.1614 53.5781 68.9599 53.7528 67.8644 54.1371V53.5781C67.8644 47.2192 65.0019 41.5242 60.5138 37.7508C62.0334 29.1908 57.616 20.3863 49.3114 16.7876C39.4871 12.4901 28.0019 16.8924 23.6905 26.5005C20.51 33.4534 21.9236 41.1399 26.4117 46.5903H25.4575C17.6476 46.5903 11.3219 52.8094 11.3219 60.5658C11.3219 64.2724 12.8112 67.8271 15.4621 70.448C18.113 73.0689 21.7085 74.5413 25.4575 74.5413C25.4575 74.5413 28.9914 74.5413 28.9914 71.0474C28.9914 67.5536 25.4575 67.5536 25.4575 67.5536ZM46.6609 32.6148C40.1585 32.6148 34.2923 35.4798 30.4403 40.0568C29.5629 38.4123 29.0751 36.5922 29.0139 34.7339C28.9526 32.8757 29.3196 31.028 30.0869 29.3306C30.7473 27.8639 31.6937 26.5404 32.872 25.4356C34.0502 24.3309 35.4372 23.4666 36.9535 22.8922C38.4699 22.3179 40.0859 22.0447 41.7091 22.0883C43.3324 22.1319 44.931 22.4915 46.4136 23.1464C48.51 24.0806 50.3035 25.5711 51.5948 27.4522C52.8862 29.3334 53.6248 31.5316 53.7287 33.8027C51.5377 33.0341 49.1347 32.6148 46.6609 32.6148M52.1385 10.3589C50.1948 9.52032 48.2512 8.9613 46.2369 8.57698L55.0363 4L58.2168 14.0973C56.3668 12.5909 54.3229 11.3338 52.1385 10.3589M25.7755 13.1539C24.0439 14.3768 22.5244 15.7744 21.2168 17.3466L21.6055 7.49387L32.0659 9.90465C29.8749 10.6034 27.7545 11.7215 25.7755 13.1539M67.8644 31.5667C67.5463 29.5402 67.0869 27.5138 66.4155 25.6271L74.8262 30.8679L67.5817 38.6592C67.9704 36.3533 68.0411 33.9774 67.8644 31.5667M14.9971 37.1219C15.2445 39.2182 15.7393 41.2447 16.3754 43.0964L8 37.8556L15.2092 30.0643C14.8558 32.3353 14.7498 34.7461 14.9971 37.1219ZM32.6313 76.0087C32.9847 77.3714 34.3983 78.14 35.7412 77.7906L41.3601 76.3232L39.8052 81.8086C39.4518 83.1712 40.2646 84.5687 41.6074 84.9181C42.9503 85.2675 44.3639 84.4639 44.7173 83.1712L46.2015 77.6159L50.3009 81.6688C51.255 82.6471 52.9159 82.6471 53.9054 81.6688C54.8949 80.6905 54.8949 79.0484 53.9054 78.1051L49.8061 74.0172L55.3897 72.5847C56.7326 72.2354 57.5454 70.8378 57.2627 69.5101C56.8386 68.1825 55.4957 67.4487 54.0468 67.7283L48.4279 69.1957L49.9828 63.7103C50.3362 62.3477 49.5587 60.9851 48.1805 60.6357C46.8376 60.2863 45.4594 61.055 45.0707 62.4176L43.6218 67.9379L39.5931 63.8501C38.533 62.8718 36.872 62.8718 35.8825 63.8501C34.9284 64.8982 34.9284 66.4705 35.8825 67.4487L39.9818 71.5016L34.4336 72.9341C33.0554 73.3185 32.2779 74.6811 32.6313 76.0087V76.0087Z" fill="white"/>
</svg>
